<?xml version="1.0" encoding="UTF-8"?>
<svg width="25px" height="25px" viewBox="0 0 25 25" version="1.1" xmlns="http://www.w3.org/2000/svg" xmlns:xlink="http://www.w3.org/1999/xlink">
    <!-- Generator: Sketch 52.4 (67378) - http://www.bohemiancoding.com/sketch -->
    <title>categories</title>
    <desc>Created with Sketch.</desc>
    <g id="Page-1" stroke="none" stroke-width="1" fill="none" fill-rule="evenodd">
        <g id="categories" fill="#717EF8">
            <path d="M22.0032649,11.8936567 L20.2192164,11.8936567 L20.2192164,7.13619402 C20.2192164,5.82789179 19.1487874,4.75746269 17.8404851,4.75746269 L13.0830224,4.75746269 L13.0830224,2.97341417 C13.0830224,1.30830224 11.7747202,0 10.1096082,0 C8.44449626,0 7.13619402,1.30830224 7.13619402,2.97341417 L7.13619402,4.75746269 L2.37873134,4.75746269 C1.07042911,4.75746269 0,5.82789179 0,7.13619402 L0,11.6557836 L1.78404851,11.6557836 C3.56809701,11.6557836 4.99533582,13.0830224 4.99533582,14.8670709 C4.99533582,16.6511194 3.56809701,18.0783582 1.78404851,18.0783582 L0,18.0783582 L0,22.5979477 C0,23.90625 1.07042911,24.9766791 2.37873134,24.9766791 L6.8983209,24.9766791 L6.8983209,23.1926306 C6.8983209,21.4085821 8.3255597,19.9813433 10.1096082,19.9813433 C11.8936567,19.9813433 13.3208955,21.4085821 13.3208955,23.1926306 L13.3208955,24.9766791 L17.8404851,24.9766791 C19.1487874,24.9766791 20.2192164,23.90625 20.2192164,22.5979477 L20.2192164,17.8404851 L22.0032649,17.8404851 C23.6683769,17.8404851 24.9766791,16.5321829 24.9766791,14.8670709 C24.9766791,13.201959 23.6683769,11.8936567 22.0032649,11.8936567 Z" id="Path"></path>
        </g>
    </g>
</svg>