<?xml version="1.0" encoding="UTF-8"?>
<svg width="25px" height="30px" viewBox="0 0 25 30" version="1.1" xmlns="http://www.w3.org/2000/svg" xmlns:xlink="http://www.w3.org/1999/xlink">
    <!-- Generator: Sketch 52.4 (67378) - http://www.bohemiancoding.com/sketch -->
    <title>notification</title>
    <desc>Created with Sketch.</desc>
    <g id="Page-1" stroke="none" stroke-width="1" fill="none" fill-rule="evenodd">
        <g id="notification" fill="#717EF8">
            <path d="M24.4607076,24.8076172 L22.3565601,21.3002643 C21.3847656,19.6814109 20.871266,17.8272059 20.871266,15.9399701 L20.871266,12.8676471 C20.871266,8.98897059 18.2830307,5.70835249 14.7437959,4.65073529 L14.7437959,2.45099954 C14.743796,1.09926471 13.6445312,0 12.2927964,0 C10.9410616,0 9.84179687,1.09926471 9.84179687,2.45099954 L9.84179687,4.65073529 C6.30261949,5.70835249 3.71438419,8.98897059 3.71438419,12.8676471 L3.71438419,15.9399701 C3.71438419,17.8272059 3.20088465,19.6801471 2.23029641,21.2990579 L0.126148897,24.8064109 C0.0121783088,24.996381 0.00970818015,25.2316751 0.118795956,25.4240579 C0.227883732,25.6164407 0.430089615,25.7353516 0.65067785,25.7353516 L23.9349725,25.7353516 C24.1555606,25.7353516 24.3589729,25.6164981 24.4680607,25.4253216 C24.5771484,25.2340878 24.5734719,24.9963235 24.4607076,24.8076172 Z" id="Path"></path>
            <path d="M8.43376609,26.9607651 C9.12494256,28.4044118 10.5881779,29.4117647 12.2927964,29.4117647 C13.997415,29.4117647 15.4607078,28.4044118 16.1518843,26.9607651 L8.43376609,26.9607651 Z" id="Path"></path>
        </g>
    </g>
</svg>