<?xml version="1.0" encoding="UTF-8"?>
<svg width="25px" height="21px" viewBox="0 0 25 21" version="1.1" xmlns="http://www.w3.org/2000/svg" xmlns:xlink="http://www.w3.org/1999/xlink">
    <!-- Generator: Sketch 52.4 (67378) - http://www.bohemiancoding.com/sketch -->
    <title>referrals</title>
    <desc>Created with Sketch.</desc>
    <g id="Page-1" stroke="none" stroke-width="1" fill="none" fill-rule="evenodd">
        <g id="referrals" transform="translate(1.000000, 0.000000)">
            <g id="multiple-users-silhouette-(1)" transform="translate(5.424955, 0.000000)" fill="#717EF8" fill-rule="nonzero">
                <path d="M8.54581073,3.59312839 C9.66244726,4.29324894 10.4454491,5.4779988 10.5880048,6.85322483 C11.0433996,7.06600362 11.5488246,7.18836649 12.0846895,7.18836649 C14.0409886,7.18836649 15.6265823,5.60277275 15.6265823,3.64677517 C15.6265823,1.69047619 14.0409886,0.104882459 12.0846895,0.104882459 C10.1470765,0.105485232 8.5753466,1.66274864 8.54581073,3.59312839 Z M6.22543701,10.8450874 C8.18173599,10.8450874 9.76732971,9.25919229 9.76732971,7.30319469 C9.76732971,5.34719711 8.1814346,3.76160338 6.22543701,3.76160338 C4.26943942,3.76160338 2.68294154,5.34749849 2.68294154,7.30349608 C2.68294154,9.25949367 4.26943942,10.8450874 6.22543701,10.8450874 Z M7.72784811,11.0864979 L4.72242314,11.0864979 C2.22182037,11.0864979 0.187462326,13.1211574 0.187462326,15.6217601 L0.187462326,19.297167 L0.196805305,19.3547318 L0.449969862,19.4339964 C2.8363472,20.1796263 4.90958408,20.42827 6.61603375,20.42827 C9.9490657,20.42827 11.8809524,19.4779988 12,19.4174201 L12.2365883,19.2977698 L12.2619048,19.2977698 L12.2619048,15.6217601 C12.2628089,13.1211574 10.2284509,11.0864979 7.72784811,11.0864979 Z M13.5877035,7.43007836 L10.6054852,7.43007836 C10.5732369,8.62326702 10.0638939,9.69770946 9.25828813,10.4704641 C11.4810127,11.1314045 13.1072936,13.192586 13.1072936,15.627185 L13.1072936,16.759795 C16.0518385,16.6518987 17.7486438,15.8173599 17.8604581,15.761302 L18.0970464,15.6413502 L18.1223629,15.6413502 L18.1223629,11.9647377 C18.1223629,9.4644364 16.0880049,7.43007836 13.5877035,7.43007836 Z" id="Shape"></path>
            </g>
            <path d="M3.31525015,0.904159132 L3.31525015,7.53465943" id="Path" stroke="#717EF8" stroke-linecap="round" stroke-linejoin="round"></path>
            <path d="M0,4.21940929 L6.6305003,4.21940929" id="Path" stroke="#717EF8" stroke-linecap="round" stroke-linejoin="round"></path>
        </g>
    </g>
</svg>