<?xml version="1.0" encoding="UTF-8"?>
<svg width="26px" height="20px" viewBox="0 0 26 20" version="1.1" xmlns="http://www.w3.org/2000/svg" xmlns:xlink="http://www.w3.org/1999/xlink">
    <!-- Generator: Sketch 52.4 (67378) - http://www.bohemiancoding.com/sketch -->
    <title>envelope (2)</title>
    <desc>Created with Sketch.</desc>
    <g id="Page-1" stroke="none" stroke-width="1" fill="none" fill-rule="evenodd">
        <g id="envelope-(2)" fill="#FFFFFF">
            <path d="M2.43702233,6.19002481 C2.7582134,6.41667494 3.72640199,7.0898263 5.34163772,8.20913151 C6.95692308,9.32843672 8.19434243,10.190273 9.05394541,10.7946898 C9.1483871,10.8609429 9.34903226,11.0049628 9.65598015,11.2269479 C9.96297767,11.4490819 10.2180645,11.6285856 10.4210422,11.7655087 C10.6241687,11.9023821 10.869727,12.0559305 11.1579653,12.2259057 C11.4461042,12.395732 11.7177171,12.5234739 11.9727543,12.6080397 C12.2278412,12.6933002 12.4639702,12.7355335 12.6811911,12.7355335 L12.6954342,12.7355335 L12.709727,12.7355335 C12.9269479,12.7355335 13.1631762,12.6932506 13.418263,12.6080397 C13.673201,12.5234739 13.945062,12.3955831 14.2329529,12.2259057 C14.5209926,12.055732 14.7665509,11.9023325 14.9696774,11.7655087 C15.172804,11.6285856 15.4276923,11.4490819 15.7347891,11.2269479 C16.0416873,11.0047643 16.2425806,10.8609429 16.3370223,10.7946898 C17.2059057,10.190273 19.4164764,8.65523573 22.9680397,6.18972705 C23.6575682,5.70818859 24.2336476,5.1271464 24.6964268,4.44699752 C25.1595533,3.7671464 25.3908685,3.05394541 25.3908685,2.30779156 C25.3908685,1.68426799 25.166402,1.15052109 24.7176675,0.706600496 C24.2689826,0.262580645 23.7375682,0.0406947891 23.1237717,0.0406947891 L2.26694789,0.0406947891 C1.53965261,0.0406947891 0.979950372,0.286253102 0.587940447,0.777369727 C0.195980149,1.26858561 0,1.88258065 0,2.61930521 C0,3.21439206 0.259851117,3.85925558 0.779305211,4.55349876 C1.29870968,5.24779156 1.85146402,5.79334988 2.43702233,6.19002481 Z" id="Path"></path>
            <path d="M23.9737965,7.70595533 C20.8758313,9.80277916 18.5234739,11.4323573 16.917866,12.5943424 C16.3794541,12.9909181 15.9426799,13.3004963 15.6072457,13.5223325 C15.2718114,13.7443176 14.8257072,13.9710174 14.2682878,14.2023325 C13.711067,14.433995 13.1917618,14.5494789 12.7099256,14.5494789 L12.6954839,14.5494789 L12.6812407,14.5494789 C12.1995037,14.5494789 11.6799007,14.433995 11.1226799,14.2023325 C10.5654591,13.9710174 10.1190571,13.7443176 9.78372208,13.5223325 C9.44848635,13.3004963 9.01156328,12.9909181 8.47320099,12.5943424 C7.19791563,11.6592556 4.85062035,10.0295782 1.43121588,7.70595533 C0.892655087,7.34724566 0.415632754,6.9360794 0,6.47330025 L0,17.7231762 C0,18.3469975 0.221885856,18.8804467 0.665905707,19.3244169 C1.1098263,19.768536 1.64362283,19.9905211 2.26709677,19.9905211 L23.1239702,19.9905211 C23.7472953,19.9905211 24.2810422,19.768536 24.7250124,19.3244169 C25.1691315,18.8802978 25.3909181,18.3470471 25.3909181,17.7231762 L25.3909181,6.47330025 C24.984665,6.92650124 24.5125062,7.33766749 23.9737965,7.70595533 Z" id="Path"></path>
        </g>
    </g>
</svg>