<svg xmlns="http://www.w3.org/2000/svg" viewBox="0 0 136.35 106.79"><defs><style>.cls-1{fill:#ebecf5;}.cls-2{fill:#f9f8ff;}.cls-3{fill:#c4c4d6;}.cls-4{fill:#354bc2;}.cls-5{fill:#dcdcdf;}.cls-6{fill:#fc5c4c;}.cls-7{fill:#394579;}.cls-8{fill:#333335;}.cls-9{fill:#14324c;}.cls-10{fill:#4456dc;}.cls-11{fill:#404451;}.cls-12{fill:#4f5260;}.cls-13{fill:#5f626d;}.cls-14{fill:#6359ff;}.cls-15{fill:#12c85b;}.cls-16{fill:#0cab4d;}.cls-17{fill:#8845f5;}.cls-18{fill:#ca8878;}.cls-19{fill:#bf7667;}</style></defs><title>Asset 7</title><g id="Layer_2" data-name="Layer 2"><g id="Layer_1-2" data-name="Layer 1"><path class="cls-1" d="M124.22,88.08c-9,18.35-49.9,19.37-81,11.85C-14.48,86-10.26,48.19,31.41,19,57.57.63,97.18-6.58,112.37,7.12S133.26,69.73,124.22,88.08Z"/><path class="cls-2" d="M106.22,101.68c-14.33,12.86-50.38-.57-74.88-18-45.54-32.45-28.62-64,18-74.88,29.28-6.85,66.41.73,74.87,18S120.55,88.82,106.22,101.68Z"/><path class="cls-3" d="M114.56,59.12l19.31,43.94a.87.87,0,0,0,.55.5,1.32,1.32,0,0,0,1.07-.12,1.5,1.5,0,0,0,.78-1.78L117.58,59.12Z"/><path class="cls-3" d="M25.61,101.66a1.5,1.5,0,0,0,.78,1.78,1.32,1.32,0,0,0,1.07.12.87.87,0,0,0,.55-.5L47.32,59.12h-3L25.61,101.66Z"/><path class="cls-4" d="M71.32,32.44q1.29,1.88,2.63,3.71l2.67,3.67c1.83,2.4,3.6,4.85,5.48,7.21A1.45,1.45,0,0,1,80,49c-2.31-1.94-4.71-3.78-7.06-5.67l-3.61-2.76q-1.8-1.38-3.64-2.72a4,4,0,0,1,4.64-6.43A3.84,3.84,0,0,1,71.32,32.44Z"/><path class="cls-3" d="M79.72,67.5,51.12,99.81a1.28,1.28,0,0,0,.11,1.81h0a1.27,1.27,0,0,0,1.8-.11l30.11-34Z"/><path class="cls-3" d="M56.3,67.5,84.9,99.81a1.28,1.28,0,0,1-.11,1.81h0a1.27,1.27,0,0,1-1.8-.11l-30.1-34Z"/><path class="cls-5" d="M83,69.64A1.32,1.32,0,0,1,81.71,71H54.33A1.33,1.33,0,0,1,53,69.64Z"/><rect class="cls-6" x="49.74" y="64.75" width="36.54" height="5.11" rx="2.18"/><path class="cls-7" d="M92.15,98.53l-3.22.28S85,77.6,81.19,71.41c-1-1.54-3.54-2.84-4.53-3.86a24.73,24.73,0,0,1,2.57,4.35c2.93,7.74-9.46,28.54-9.46,28.54H66.93s6.35-18.1,4-25-12.83-9.13-16.58-9.95-1.47-6.69-1.47-6.69a7.17,7.17,0,0,1,2.49-3.92c12-.84,20.36,1.55,25.33,4A15.08,15.08,0,0,1,87.9,66.4C93.11,78.22,92.15,98.53,92.15,98.53Z"/><path class="cls-8" d="M88.44,97.34s3.38-.65,4.38-.18,3.88.17,4.41,1.11c.44.77-5.33,1.72-7.41,2a.78.78,0,0,1-.88-.61Z"/><path class="cls-8" d="M67.18,98.23s3.16,1.35,3.72,2.31,3.12,2.32,3,3.4c-.08.88-5.38-1.58-7.28-2.49a.78.78,0,0,1-.38-1Z"/><path class="cls-9" d="M65.07,35.93c-1.14-3.59-4.78-10.81-2.78-13.2C63.88,20.81,64,8.92,64,8.92s4.81-2.26,4.39-3.26c0,0-7.87-3.75-12.44,1.24-3.35,3.65-5.38,19.79-5.42,28.92C50.51,46,65.07,46.15,65.07,35.93Z"/><path class="cls-10" d="M70.68,32.66v23c-.43,3.94-6.51,7.07-18.5,5.85L51.4,34.25s2.29-.61,2.2-1.5C53.6,25.59,70.68,25.61,70.68,32.66Z"/><path class="cls-10" d="M59.3,27.43a13.62,13.62,0,0,0-7.25,5L55,32.33C57.68,30.7,60.12,29.21,59.3,27.43Z"/><path class="cls-4" d="M59,34.36,61.74,54,59.21,52l20.47,1.15a1.44,1.44,0,0,1,0,2.88L59.21,57.16a2.41,2.41,0,0,1-2.45-1.75l-.09-.31L51.32,36a3.91,3.91,0,1,1,7.54-2.1A3,3,0,0,1,59,34.36Z"/><rect class="cls-5" x="35.41" y="57.03" width="91.06" height="3.53" rx="1.76"/><path class="cls-11" d="M90.55,55a2,2,0,0,1-2,2h-25a2,2,0,0,1-2-2Z"/><rect class="cls-12" x="72.56" y="35.86" width="29.05" height="21.18" rx="2.01"/><ellipse class="cls-13" cx="87.09" cy="46.45" rx="2.41" ry="1.59"/><path class="cls-14" d="M107.9,46.84v1.52a1.65,1.65,0,0,0-1.7.12,3,3,0,0,0-.65,3.5,18.43,18.43,0,0,0,2.3,3.39l.05.07h0A1.58,1.58,0,0,0,109.48,57h4.94A1.59,1.59,0,0,0,116,55.45V46.84Zm0,7.28a18.24,18.24,0,0,1-1.66-2.4,2.23,2.23,0,0,1,.41-2.6.77.77,0,0,1,.5-.18,1.31,1.31,0,0,1,.75.3Z"/><path class="cls-15" d="M19,92.75a8.3,8.3,0,0,1,1.57-6.17c2.62-3.23,4.54-5.2,3.12-8.8s-3.11-7.92-2.15-13.18-5-5.65-5.32,1.64S7.74,74,9.86,77.66,15.39,86,15.22,92.58Z"/><path class="cls-16" d="M17.72,92.69c-.06-3.22-.09-6.45-.06-9.68,0-4.24.14-8.46.5-12.67-.53,4.2-.79,8.42-1,12.65-.15,3.22-.25,6.44-.32,9.66Z"/><path class="cls-17" d="M20.86,104.12H12.92a1.19,1.19,0,0,1-1.18-1L10.21,92.67a1.19,1.19,0,0,1,1.18-1.37h11a1.19,1.19,0,0,1,1.18,1.37L22,103.1A1.19,1.19,0,0,1,20.86,104.12Z"/><path class="cls-16" d="M17,87.7a24.17,24.17,0,0,1,4.62-8.33,23.6,23.6,0,0,0-4.11,8.44Z"/><path class="cls-16" d="M17.67,84.22l-.52.1A23.33,23.33,0,0,0,13,75.89,24,24,0,0,1,17.67,84.22Z"/><path class="cls-18" d="M58.12,28.76c-.14-.25-.24-.49-.36-.73.12,0,.32-.45.48-.85a3.32,3.32,0,0,0,.27-1.35V13.56h4.66v12.2c0,2.29,3,4.22,1.45,7.35C63.72,34.91,60.91,33.83,58.12,28.76Z"/><path class="cls-18" d="M65.66,24.29a2.29,2.29,0,0,1-3.29-.2A17.71,17.71,0,0,1,58,14.15c-.16-1.62-.24-2.81-.24-2.81.24-1.25,3.53-5.64,6.95-2.83C67.5,10.83,68.57,21.36,65.66,24.29Z"/><path class="cls-19" d="M58.54,19a17.36,17.36,0,0,0,5,8.31h0a3.76,3.76,0,0,1-.39-1.51V24.68S59.52,21.84,58.54,19Z"/></g></g></svg>