<?xml version="1.0" encoding="UTF-8"?>
<svg width="20px" height="20px" viewBox="0 0 20 20" version="1.1" xmlns="http://www.w3.org/2000/svg" xmlns:xlink="http://www.w3.org/1999/xlink">
    <!-- Generator: Sketch 52.4 (67378) - http://www.bohemiancoding.com/sketch -->
    <title>google-plus</title>
    <desc>Created with Sketch.</desc>
    <g id="Page-1" stroke="none" stroke-width="1" fill="none" fill-rule="evenodd">
        <g id="google-plus">
            <circle id="XMLID_30_" fill="#DC4E41" cx="9.84175439" cy="10.0170175" r="9.84175439"></circle>
            <g id="Group" transform="translate(3.333333, 6.315789)">
                <path d="M0.0931578947,4.14175439 C0.058245614,5.83508772 1.2245614,7.45105263 2.82894737,7.97807018 C4.34017544,8.48578947 6.19824561,8.10596491 7.20385965,6.81175439 C7.93807018,5.90491228 8.10491228,4.69596491 8.0254386,3.56649123 C6.73122807,3.55491228 5.43701754,3.55877193 4.14473684,3.56070175 C4.14263158,4.02175439 4.14473684,4.48105263 4.14666667,4.94210526 C4.92157895,4.96350877 5.69666667,4.95368421 6.47157895,4.96929825 C6.27596491,5.63964912 5.83035088,6.26350877 5.15403509,6.50561404 C3.84824561,7.08105263 2.18210526,6.32929825 1.77122807,4.95947368 C1.27526316,3.6477193 2.08719298,2.06473684 3.4277193,1.68315789 C4.25894737,1.39070175 5.11526316,1.72 5.82649123,2.15210526 C6.18684211,1.81491228 6.52403509,1.4545614 6.85526316,1.09035088 C6.04719298,0.414210526 5.00877193,-0.000350877193 3.94122807,0.0907017544 C1.84666667,0.115614035 0.0136842105,2.04929825 0.0931578947,4.14175439 Z" id="Path" fill="#DC4E41"></path>
                <path d="M10.5442105,2.39789474 C10.5403509,2.78350877 10.5363158,3.17105263 10.534386,3.55649123 C10.1468421,3.56035088 9.76140351,3.5622807 9.37578947,3.56421053 C9.37578947,3.94982456 9.37578947,4.33333333 9.37578947,4.71894737 C9.76140351,4.72087719 10.1489474,4.72280702 10.534386,4.72684211 C10.5382456,5.11245614 10.5382456,5.49789474 10.5421053,5.8854386 C10.9257895,5.8854386 11.3114035,5.88350877 11.6968421,5.8854386 C11.6989474,5.49789474 11.7007018,5.11245614 11.7047368,4.72491228 C12.0901754,4.72298246 12.4777193,4.72105263 12.8633333,4.71912281 C12.8633333,4.33350877 12.8633333,3.95 12.8633333,3.56438596 C12.4778947,3.56245614 12.0903509,3.56052632 11.7047368,3.55666667 C11.7026316,3.17105263 11.6989474,2.78350877 11.6968421,2.39807018 C11.3114035,2.39789474 10.9277193,2.39789474 10.5442105,2.39789474 Z" id="Path" fill="#DC4E41"></path>
                <g fill="#FFFFFF" id="Path">
                    <path d="M0.0931578947,4.14175439 C0.0136842105,2.04929825 1.84649123,0.115614035 3.94105263,0.0905263158 C5.00859649,-0.000526315789 6.04719298,0.414035088 6.85508772,1.09017544 C6.52368421,1.4545614 6.18649123,1.81473684 5.82631579,2.15192982 C5.11508772,1.71982456 4.25877193,1.39052632 3.42754386,1.68298246 C2.08684211,2.06473684 1.27491228,3.6477193 1.77105263,4.95929825 C2.18192982,6.32912281 3.84807018,7.08087719 5.15385965,6.5054386 C5.83,6.26333333 6.27578947,5.63947368 6.47140351,4.96912281 C5.69649123,4.95368421 4.92140351,4.96333333 4.14649123,4.94192982 C4.1445614,4.48087719 4.14263158,4.02157895 4.1445614,3.56052632 C5.43684211,3.55859649 6.73105263,3.55473684 8.02526316,3.56631579 C8.10473684,4.69596491 7.93807018,5.90491228 7.20368421,6.81157895 C6.19807018,8.10578947 4.34017544,8.48561404 2.82877193,7.97789474 C1.22473684,7.45105263 0.058245614,5.83508772 0.0931578947,4.14175439 Z"></path>
                    <path d="M10.5442105,2.39789474 C10.9278947,2.39789474 11.3114035,2.39789474 11.6968421,2.39789474 C11.6989474,2.78350877 11.7026316,3.17105263 11.7047368,3.55649123 C12.0901754,3.56035088 12.4777193,3.5622807 12.8633333,3.56421053 C12.8633333,3.94982456 12.8633333,4.33333333 12.8633333,4.71894737 C12.4778947,4.72087719 12.0903509,4.72280702 11.7047368,4.72473684 C11.7008772,5.1122807 11.6989474,5.4977193 11.6968421,5.88526316 C11.3114035,5.88333333 10.925614,5.88526316 10.5421053,5.88526316 C10.5384211,5.4977193 10.5384211,5.1122807 10.534386,4.72666667 C10.1489474,4.72263158 9.76140351,4.72087719 9.37578947,4.71877193 C9.37578947,4.33315789 9.37578947,3.94964912 9.37578947,3.56403509 C9.76140351,3.56210526 10.1470175,3.56017544 10.534386,3.55631579 C10.5363158,3.17105263 10.5401754,2.78350877 10.5442105,2.39789474 Z"></path>
                </g>
            </g>
        </g>
    </g>
</svg>