<svg xmlns="http://www.w3.org/2000/svg" xmlns:xlink="http://www.w3.org/1999/xlink" viewBox="0 0 164.48 133.23"><defs><style>.cls-1{fill:none;}.cls-2{clip-path:url(#clip-path);}.cls-3{isolation:isolate;}.cls-4{fill:#14324c;}.cls-5{fill:#284e6b;}.cls-6{fill:#c98777;}.cls-7{fill:#ffd674;}.cls-8{fill:#3f4854;}.cls-9{fill:#3e5d7c;}.cls-10{fill:#ffd180;}.cls-11{fill:#ca8878;}.cls-12{fill:#bf7667;}.cls-13{fill:#76cae4;}.cls-14{fill:#36516f;}.cls-15{fill:#6374de;}.cls-16{fill:#465ed3;}.cls-17{fill:#fff;}.cls-18{fill:#304f68;}.cls-19{fill:#f66e57;}.cls-20{fill:#17bccf;}.cls-21{fill:#555246;}</style><clipPath id="clip-path"><rect class="cls-1" width="160.58" height="111.6"/></clipPath></defs><title>Asset 4</title><g id="Layer_2" data-name="Layer 2"><g id="Layer_1-2" data-name="Layer 1"><g class="cls-2"><g class="cls-3"><path class="cls-4" d="M95.93,79.57,98,83.69a.16.16,0,0,0,.11.09l1.86.34a.12.12,0,0,1-.12-.08l-2.08-4.13a.24.24,0,0,1,.07-.31.15.15,0,0,1,.13,0l-1.85-.34a.15.15,0,0,0-.13,0A.24.24,0,0,0,95.93,79.57Z"/><path class="cls-5" d="M97.85,79.6a.25.25,0,0,0-.08.31L99.86,84a.17.17,0,0,0,.26.06.27.27,0,0,0,.07-.3L98.1,79.66A.16.16,0,0,0,97.85,79.6Z"/></g><path class="cls-6" d="M105.47,79.87c-.39,3.65-.85,7.33-1.56,11a65.33,65.33,0,0,1-3,10.68.56.56,0,0,1-.71.32.55.55,0,0,1-.33-.65,63.51,63.51,0,0,0,1.76-10.67c.3-3.59.35-7.2.35-10.84a1.75,1.75,0,0,1,3.5,0A1.21,1.21,0,0,1,105.47,79.87Z"/><path class="cls-6" d="M106.08,109.66l-2.16,19.24a.48.48,0,0,1-.46.43.47.47,0,0,1-.5-.46l-.76-19.21Z"/><path class="cls-7" d="M101,128.74a.45.45,0,0,0-.44.45v.45h3a.45.45,0,0,0,.45-.45V128h-1.21l-1.12.7Z"/><path class="cls-8" d="M104,129.4a.45.45,0,0,1-.39.24h-3v-.24Z"/><polygon class="cls-6" points="110.37 109.66 109.54 128.22 108.49 128.22 106.48 109.66 110.37 109.66"/><path class="cls-7" d="M106.59,128.74a.45.45,0,0,0-.45.45v.45h3a.45.45,0,0,0,.44-.45V128H108.4l-1.12.7Z"/><path class="cls-8" d="M109.55,129.4a.44.44,0,0,1-.38.24h-3v-.24Z"/><path class="cls-4" d="M105,78.44c.58-1.81,2.41-5.45,1.41-6.66-.81-1-.86-7-.86-7s-2.42-1.14-2.21-1.64c0,0,4-1.89,6.27.62,1.69,1.84,2.71,10,2.73,14.58A3.68,3.68,0,1,1,105,78.44Z"/><path class="cls-9" d="M111.87,93a25.26,25.26,0,0,1,0,9.71,45.47,45.47,0,0,0-.84,9.33c0,1.36-9.35,1.36-9.35,0l.2-18.1Z"/><path class="cls-10" d="M101.68,94.71V80.48a5.78,5.78,0,0,1,2.58-4.8,6,6,0,0,1,5.19-1.08,4.63,4.63,0,0,1,3,4.54V93.72C112.47,94.84,101.68,95.83,101.68,94.71Z"/><path class="cls-6" d="M112.18,79.43c0,1.88,0,3.76-.13,5.68a25,25,0,0,1-.32,3,5.41,5.41,0,0,1-.62,1.76,2.2,2.2,0,0,1-2.44,1.07A5.17,5.17,0,0,1,107,90.2a13.93,13.93,0,0,1-1.22-.86c-.77-.58-1.5-1.18-2.22-1.78-1.45-1.19-2.88-2.38-4.35-3.53a.58.58,0,0,1-.1-.81.59.59,0,0,1,.76-.13c1.6,1,3.17,2,4.72,3.08.78.51,1.56,1,2.33,1.49.39.24.78.46,1.15.64a3,3,0,0,0,1,.34c.11,0,.08,0,0,0s-.11.07-.09,0a3.66,3.66,0,0,0,.17-.9,20.87,20.87,0,0,0,0-2.62c-.1-1.81-.27-3.67-.44-5.52a1.75,1.75,0,1,1,3.49-.34Z"/><path class="cls-11" d="M108.51,74.82a2.58,2.58,0,0,0,.19-.37,1,1,0,0,1-.25-.42,1.8,1.8,0,0,1-.13-.69V67.16H106v6.15c0,1.16-1.52,2.13-.73,3.71C105.69,77.92,107.11,77.38,108.51,74.82Z"/><path class="cls-11" d="M104.72,72.57a1.16,1.16,0,0,0,1.66-.1,9,9,0,0,0,2.2-5c.08-.82.12-1.42.12-1.42-.12-.63-1.78-2.84-3.51-1.43C103.79,65.79,103.25,71.09,104.72,72.57Z"/><path class="cls-4" d="M109.62,73.69a17.72,17.72,0,0,1-1.38-4.14c-.61-1.76-.65.14-1.31.11s.3-3.69-2.53-3.74-3.26-2.81,1.06-3.32,3.65,3.54,3.77,6.33S109.62,73.69,109.62,73.69Z"/><path class="cls-12" d="M108.3,69.88a8.71,8.71,0,0,1-2.52,4.19h0a1.89,1.89,0,0,0,.19-.76v-.54A8,8,0,0,0,108.3,69.88Z"/><path class="cls-6" d="M100.3,83.31s-.56-1.26-1-1.29l.23,1s-1.26-1-1.46-1.55-1.77,1.49,1.32,2.68"/><path class="cls-6" d="M100.73,102.48c.75-2.73.17-1.69.17-1.69l-.84-.2s-1.18.72-1,1.28c.06.27.54,0,.77-.22a2.08,2.08,0,0,1-1.14,1.16C97.65,103.19,100.25,104.24,100.73,102.48Z"/><rect class="cls-6" x="24.83" y="126.94" width="1.37" height="3.2" transform="translate(51.02 257.07) rotate(-180)"/><path class="cls-13" d="M26.22,129.64a.08.08,0,0,1,.08,0,.08.08,0,0,1,0,.07v.49l.85.13a1.23,1.23,0,0,1,1,1H25a.32.32,0,0,1-.32-.32v-1.29a.09.09,0,0,1,0-.08.11.11,0,0,1,.08,0A3.1,3.1,0,0,0,26.22,129.64Z"/><polygon class="cls-6" points="31.66 129.76 33.02 129.76 32.85 126.94 31.48 126.94 31.66 129.76"/><path class="cls-13" d="M33.05,129.64a.08.08,0,0,1,.08,0,.08.08,0,0,1,0,.07v.49l.85.13a1.24,1.24,0,0,1,1,1H31.83a.32.32,0,0,1-.32-.32v-1.29a.12.12,0,0,1,0-.08.11.11,0,0,1,.08,0A3.1,3.1,0,0,0,33.05,129.64Z"/><path class="cls-6" d="M32.82,81.28c.09,1.72.16,3.41.32,5a16.6,16.6,0,0,0,1,4.59,11.53,11.53,0,0,0,2.67,3.84,28.18,28.18,0,0,0,3.92,3.13h0a.46.46,0,0,1,.12.65.47.47,0,0,1-.58.16,29.88,29.88,0,0,1-4.59-2.59,13.85,13.85,0,0,1-3.84-4A19,19,0,0,1,29.78,87c-.46-1.74-.81-3.44-1.17-5.12a2.13,2.13,0,1,1,4.17-.89,1.86,1.86,0,0,1,0,.33Z"/><path class="cls-6" d="M41.29,99.74c-2.2-1.78-1.12-1.28-1.12-1.28l.4-.66s1.55-.09,1.76.43c.11.26-.46.29-.76.28a2.1,2.1,0,0,0,1.61.28C44.21,98.51,42.71,100.89,41.29,99.74Z"/><path class="cls-14" d="M26,97.78a3.1,3.1,0,0,0,.05.54l5.47,30.34c0,.3,1.61.13,1.58-.16l-.46-30.82a3.32,3.32,0,1,0-6.64.1Z"/><path class="cls-9" d="M22.24,97.39a2.44,2.44,0,0,0,0,.54l2.51,30.72c0,.27,1.59.27,1.59,0l2.52-30.72a3.32,3.32,0,0,0-6.62-.54Z"/><g class="cls-3"><path class="cls-4" d="M38.58,80.18,36.5,84.31a.2.2,0,0,1-.12.09l-1.85.34a.14.14,0,0,0,.11-.09l2.09-4.13a.23.23,0,0,0-.08-.3.2.2,0,0,0-.13,0l1.85-.34a.13.13,0,0,1,.13,0A.23.23,0,0,1,38.58,80.18Z"/><path class="cls-5" d="M36.66,80.22a.26.26,0,0,1,.07.31l-2.08,4.12a.17.17,0,0,1-.26.06.26.26,0,0,1-.07-.31l2.09-4.12A.16.16,0,0,1,36.66,80.22Z"/></g><path class="cls-15" d="M32.82,97.85V80.19a5.21,5.21,0,0,0-2.57-4.57,5.72,5.72,0,0,0-5.19-.6,5.16,5.16,0,0,0-3,4.81v18C22,99,32.82,99,32.82,97.85Z"/><path class="cls-16" d="M25.86,82.71s-.07,5.63.49,6.56-1.13,1-1.13,1L24,87Z"/><path class="cls-17" d="M26.21,77.2c1.12,2.13,3.31,13.5,2.21,21.48a24.36,24.36,0,0,0,2.84-.22c.29-4.39,1.1-20.2-2.07-23-.53-.67-3.59-1.07-3.64-.26A5,5,0,0,0,26.21,77.2Z"/><path class="cls-6" d="M35.39,83.9a.58.58,0,0,0-.8-.2c-1.62,1-3.21,2-4.78,3-.79.5-1.58,1-2.36,1.46-.39.22-.78.44-1.15.61a3.74,3.74,0,0,1-.59.23,5.25,5.25,0,0,1-.08-.7,22.61,22.61,0,0,1,.06-2.57c0-.65.11-1.3.17-3a9.58,9.58,0,0,1-3.81,0c0,1.71.05,2.37.1,3a24.25,24.25,0,0,0,.36,3,5.88,5.88,0,0,0,.68,1.85,2.56,2.56,0,0,0,1.18,1,2.43,2.43,0,0,0,1.5.11A4.93,4.93,0,0,0,27.56,91c.44-.29.83-.59,1.22-.89.76-.6,1.48-1.21,2.19-1.82,1.43-1.22,2.84-2.43,4.29-3.61A.6.6,0,0,0,35.39,83.9ZM25.5,89h-.09C25.33,89,25.39,89,25.5,89Z"/><path class="cls-12" d="M22,82.71c0,.18,0,.34,0,.51a10.73,10.73,0,0,0,3.79,0c0-.15,0-.32,0-.49A10,10,0,0,1,22,82.71Z"/><path class="cls-6" d="M34.21,83.92s.55-1.25,1-1.28l-.22,1s1.26-1,1.46-1.55,1.77,1.49-1.33,2.69"/><path class="cls-11" d="M28.8,75.6V67.49l-2.91-.74v8.11a2,2,0,0,0,1.46,1.74h0A1.06,1.06,0,0,0,28.8,75.6Z"/><path class="cls-11" d="M30.35,73.69a1.5,1.5,0,0,1-2.05-.12,10.06,10.06,0,0,1-2.73-5.82c-.1-1-.15-1.64-.15-1.64.15-.74,2.21-3.3,4.34-1.66C31.5,65.81,32.17,72,30.35,73.69Z"/><path class="cls-4" d="M26.92,66.85c.52,2-.58,4.7-1,4.53s-1.5-5.14-1-6.16a.86.86,0,0,1,1.23-.35,3,3,0,0,1,.34-1.33c.55-1.14,2.09-1.27,3.67-.76a4.65,4.65,0,0,0,3.1-.21,3.24,3.24,0,0,1-1.28,1.65,7.22,7.22,0,0,0,1.47,0h.07C32.61,66.49,28.44,66.81,26.92,66.85Z"/><ellipse class="cls-11" cx="26.78" cy="69.64" rx="0.69" ry="1.24" transform="translate(-18.24 10.14) rotate(-16.07)"/><path class="cls-12" d="M28.81,73.92v.72A7.71,7.71,0,0,1,26.53,71,9.89,9.89,0,0,0,28.81,73.92Z"/><rect class="cls-6" x="68.45" y="128.83" width="1.37" height="3.2" transform="translate(138.26 260.85) rotate(-180)"/><path class="cls-13" d="M69.84,131.53a.08.08,0,0,1,.08,0,.08.08,0,0,1,0,.07v.49l.85.13a1.26,1.26,0,0,1,1,1H68.62a.32.32,0,0,1-.32-.32v-1.29a.09.09,0,0,1,0-.08.11.11,0,0,1,.08,0A3.1,3.1,0,0,0,69.84,131.53Z"/><path class="cls-9" d="M65.86,96.69a4.86,4.86,0,0,0,0,.54l2.51,33.31c0,.27,1.59.27,1.59,0l2.52-33.31a3.32,3.32,0,1,0-6.62-.54Z"/><polygon class="cls-18" points="71.45 98.94 71.18 98.35 71.56 98.81 71.45 98.94"/><path class="cls-11" d="M80.25,88.62A8.9,8.9,0,0,1,79,91.91l-.44.75-.49.71a17.36,17.36,0,0,1-1,1.4,35.5,35.5,0,0,1-4.86,5.2,3,3,0,0,1-.76-1,32.3,32.3,0,0,0,3.89-5.56c.29-.48.52-1,.76-1.44l.34-.72.26-.69a4.63,4.63,0,0,0,.37-2.32A2.57,2.57,0,0,0,76.33,87a4.52,4.52,0,0,0,2.54-1.38h.83A5.45,5.45,0,0,1,80.25,88.62Z"/><rect class="cls-6" x="63.18" y="128.83" width="1.37" height="3.2"/><path class="cls-13" d="M63.16,131.53a.11.11,0,0,0-.13.09v.49l-.84.13a1.24,1.24,0,0,0-1,1h3.22a.31.31,0,0,0,.31-.32v-1.29a.11.11,0,0,0,0-.08.15.15,0,0,0-.09,0A3.06,3.06,0,0,1,63.16,131.53Z"/><path class="cls-9" d="M67.14,96.69a4.86,4.86,0,0,1,0,.54l-2.52,33.31c0,.27-1.59.27-1.59,0L60.52,97.23a3.32,3.32,0,1,1,6.62-.54Z"/><path class="cls-19" d="M60.38,83.35V98.68c.38,2.16,12.61.25,12.22-1.92V83.35Z"/><path class="cls-4" d="M69.14,84.79l-.28,3.68a.28.28,0,0,1-.28.27H66.91a.29.29,0,0,1-.29-.27l-.27-3.68a.29.29,0,0,1,.29-.32h2.21A.29.29,0,0,1,69.14,84.79Z"/><path class="cls-11" d="M66.85,87.16c-2.66,1.51-6.44,3.81-9.31,2.89h0l.37-1.61h-3.6A5,5,0,0,0,54.7,91a3.2,3.2,0,0,0,1.37,1.45,4.32,4.32,0,0,0,1.94.46c3.49,0,6.56-2.73,9.33-4.84Z"/><path class="cls-11" d="M65.94,87.68a2.42,2.42,0,0,1,.52-1.33l0,.66a1.83,1.83,0,0,0,1-1c.28-.75.94-.55,1.06.51s-1.86,2.07-1.86,2.07Z"/><path class="cls-12" d="M72.35,99.85l-.14.12a3,3,0,0,1-.76-1,1.83,1.83,0,0,0,.13-.16A3.77,3.77,0,0,0,72.35,99.85Z"/><path class="cls-18" d="M62.27,100.06a6.37,6.37,0,0,1-1.42,1.29l0-.37A5.86,5.86,0,0,0,62.27,100.06Z"/><path class="cls-6" d="M124.93,82.07c1,1.57,2,3.16,2.95,4.76.49.8,1,1.61,1.52,2.42.27.4.55.81.88,1.22a5.33,5.33,0,0,0,1.37,1.26,2.52,2.52,0,0,0,1.46.36,2.6,2.6,0,0,0,1.45-.63,5.84,5.84,0,0,0,1.21-1.54,25,25,0,0,0,1.29-2.76c.25-.62.47-1.23,1-2.84a9.82,9.82,0,0,1-3.62-1.19c-.48,1.65-.62,2.29-.77,2.92a21.2,21.2,0,0,1-.75,2.47,5.57,5.57,0,0,1-.29.63,2.88,2.88,0,0,1-.49-.41c-.3-.27-.6-.6-.9-.93-.6-.67-1.2-1.39-1.79-2.12-1.19-1.44-2.38-2.9-3.61-4.33a.6.6,0,0,0-.83-.06A.59.59,0,0,0,124.93,82.07Z"/><path class="cls-6" d="M125.6,80.16l-.09,1a6.08,6.08,0,0,1-.91-1.93.13.13,0,0,0-.07-.12l.13,2.68a3.3,3.3,0,0,0,.37.4l1.12-.49S126,80.33,125.6,80.16Z"/><rect class="cls-6" x="141.03" y="126.94" width="1.37" height="3.2"/><path class="cls-13" d="M141,129.64a.11.11,0,0,0-.13.09v.49l-.84.13a1.24,1.24,0,0,0-1,1h3.22a.31.31,0,0,0,.31-.32v-1.29a.11.11,0,0,0,0-.08.15.15,0,0,0-.09,0A3.06,3.06,0,0,1,141,129.64Z"/><polygon class="cls-6" points="135.02 129.76 133.65 129.76 133.82 126.94 135.19 126.94 135.02 129.76"/><path class="cls-13" d="M133.62,129.64a.08.08,0,0,0-.08,0,.1.1,0,0,0,0,.07v.49l-.84.13a1.24,1.24,0,0,0-1,1h3.21a.32.32,0,0,0,.32-.32v-1.29a.09.09,0,0,0,0-.08.11.11,0,0,0-.08,0A3.1,3.1,0,0,1,133.62,129.64Z"/><path class="cls-14" d="M140.72,97.78a3.1,3.1,0,0,1-.05.54l-5.47,30.34c0,.3-1.61.13-1.58-.16l.46-30.82a3.32,3.32,0,1,1,6.64.1Z"/><path class="cls-9" d="M145,97.39a4.86,4.86,0,0,1,0,.54l-2.52,30.72c0,.27-1.59.27-1.59,0l-2.51-30.72a3.32,3.32,0,1,1,6.62-.54Z"/><path class="cls-20" d="M133.83,98.67l.55-17.89A5.94,5.94,0,0,1,137,75.93c1.94-1.3,3.65-1.64,5.19-1.17a4.51,4.51,0,0,1,3,4.48v18C145.46,99.93,134.13,101.35,133.83,98.67Z"/><path class="cls-6" d="M141.79,89h-.08C141.81,89,141.87,89,141.79,89Z"/><path class="cls-11" d="M138.4,75.6V67.49l2.91-.74v8.11a2,2,0,0,1-1.45,1.74h0A1.07,1.07,0,0,1,138.4,75.6Z"/><path class="cls-11" d="M136.85,73.69a1.5,1.5,0,0,0,2.05-.12,10.06,10.06,0,0,0,2.73-5.82c.1-1,.15-1.64.15-1.64-.15-.74-2.21-3.3-4.34-1.66C135.7,65.81,135,72,136.85,73.69Z"/><path class="cls-4" d="M140.28,66.85c-.52,2,.58,4.7,1,4.53s1.5-5.14,1-6.16c-.26-.57-.8-.53-1.23-.35a3,3,0,0,0-.34-1.33c-.55-1.14-2.09-1.27-3.67-.76a4.65,4.65,0,0,1-3.1-.21,3.24,3.24,0,0,0,1.28,1.65,7.22,7.22,0,0,1-1.47,0h-.07C134.59,66.49,138.77,66.81,140.28,66.85Z"/><ellipse class="cls-11" cx="140.43" cy="69.64" rx="1.24" ry="0.69" transform="translate(34.62 185.3) rotate(-73.93)"/><path class="cls-12" d="M138.4,73.92v.72a7.66,7.66,0,0,0,2.27-3.6A9.92,9.92,0,0,1,138.4,73.92Z"/><path class="cls-6" d="M141.13,83.56c0,.92-.11,1.84-.19,2.73a16.6,16.6,0,0,1-1,4.59,11.6,11.6,0,0,1-2.66,3.84,28.08,28.08,0,0,1-3.91,3.13h0a.48.48,0,0,0-.16.59.47.47,0,0,0,.63.23,29.1,29.1,0,0,0,4.6-2.58,13.76,13.76,0,0,0,3.85-4,19.27,19.27,0,0,0,2.08-5.16c.31-1.14.56-2.26.8-3.37A13,13,0,0,1,141.13,83.56Z"/><path class="cls-12" d="M145.17,83.56c0,.18-.09.35-.13.54a13.7,13.7,0,0,1-3.94,0l0-.52A13,13,0,0,0,145.17,83.56Z"/><path class="cls-12" d="M141.1,84.08c0,.38,0,.76-.07,1.14,0-.38,0-.77,0-1.14Z"/><path class="cls-6" d="M132.82,99.72c2.2-1.78,1.12-1.28,1.12-1.28l-.4-.66s-1.55-.1-1.76.43c-.11.26.46.29.76.28a2.15,2.15,0,0,1-1.61.27C129.9,98.49,131.4,100.87,132.82,99.72Z"/><g class="cls-3"><path class="cls-4" d="M124,77.22l.7,4.57a.16.16,0,0,0,.08.12l1.65.9a.2.2,0,0,1-.08-.12l-.7-4.57a.24.24,0,0,1,.17-.27.14.14,0,0,1,.14,0l-1.66-.9a.12.12,0,0,0-.13,0A.24.24,0,0,0,124,77.22Z"/><path class="cls-5" d="M125.78,77.84a.25.25,0,0,0-.17.27l.7,4.57a.18.18,0,0,0,.23.14.28.28,0,0,0,.16-.27L126,78A.17.17,0,0,0,125.78,77.84Z"/></g><path class="cls-6" d="M124.66,81.77a3.37,3.37,0,0,0,.17-2.48C124.34,78.21,123.63,78.36,124.66,81.77Z"/><rect class="cls-1" width="160.58" height="111.6"/><path class="cls-19" d="M79.84,85.89C77.29,80,64,68.35,55.69,83.66a14.36,14.36,0,0,0-1.37,3.54,9,9,0,0,0-.2,1.73c0,.47,3.8.62,3.82.15a10.68,10.68,0,0,1,2.44-3.87v.56h5.77a5,5,0,0,1,6.45-.66v-.57c.73.52,3.69,2.67,4.06,3.48C77,88.48,80.15,86.34,79.84,85.89Z"/><path class="cls-11" d="M68,73.59v2.67a1.46,1.46,0,1,1-2.92,0V73.59Z"/><path class="cls-12" d="M68,73.59v1.59a2.33,2.33,0,0,1-2.92,0V73.59Z"/><ellipse class="cls-11" cx="69.92" cy="70.93" rx="1.09" ry="0.78" transform="translate(-14.16 124.33) rotate(-77.83)"/><ellipse class="cls-11" cx="63.07" cy="70.93" rx="0.78" ry="1.09" transform="translate(-13.54 14.89) rotate(-12.17)"/><path class="cls-11" d="M69.92,69.71c0,7.37-6.85,7.37-6.85,0,0-2.53,1.53-4.58,3.42-4.58S69.92,67.18,69.92,69.71Z"/><path class="cls-4" d="M63.22,71.48a17.46,17.46,0,0,0,1.19-4.86c0-2-1.6-.37-1.6-.37S62.11,69.58,63.22,71.48Z"/><path class="cls-4" d="M71.29,66.69a12.84,12.84,0,0,1-1.47,4.52,13.26,13.26,0,0,1-1.22-4.28c-1.5.92-4.62,1.66-8.44.42,3-1.83,3.35-5.09,7-4.84a3.77,3.77,0,0,1,2.71,1.4,1.54,1.54,0,0,1,.39,1.15A1.59,1.59,0,0,1,71.29,66.69Z"/></g><path class="cls-21" d="M109.47,28.71c0,9,7.79,16.63,18.6,19.38L137,57V49.19c15.18,0,27.5-9.17,27.5-20.48S152.16,8.25,137,8.25,109.47,17.41,109.47,28.71Z"/><path class="cls-17" d="M145,26.33V36h-4.57v-2.1c-.92,1.56-2.63,2.35-5.14,2.35-4.16,0-6.3-2.33-6.3-5.11a4.4,4.4,0,0,1,1.77-3.7Q132.51,26,136.21,26h3.88c0-2.32-1.52-3.32-3.88-3.32a8.13,8.13,0,0,0-4.86,1.57l-1.75-3.42a13.13,13.13,0,0,1,7.27-2C142,18.84,145,21.19,145,26.33Zm-4.89,4.29V28.9h-3.35c-2,0-3,.65-3,2s1.3,2,2.76,2A3.6,3.6,0,0,0,140.09,30.62Z"/><path class="cls-19" d="M84.78,25.25a20.27,20.27,0,0,0,11,18l9.34,9.34V45.56A20.31,20.31,0,1,0,84.78,25.25Z"/><path class="cls-17" d="M114.27,13.5V36.75H109.6V34.81A6.46,6.46,0,0,1,104.33,37c-4.87,0-8.43-3.43-8.43-8.68s3.66-8.68,8.43-8.68a6.4,6.4,0,0,1,5,2V13.5Zm-4.8,14.82c0-3-2-4.67-4.29-4.67s-4.32,1.67-4.32,4.67,2,4.67,4.32,4.67S109.47,31.33,109.47,28.32Z"/><path class="cls-20" d="M63.88,29.79c0,9-7.78,16.62-18.6,19.37l-8.9,8.92V50.26c-15.19,0-27.5-9.16-27.5-20.47S21.19,9.33,36.38,9.33,63.88,18.48,63.88,29.79Z"/><path class="cls-17" d="M43.52,19.7,35.91,37.59c-1.37,3.42-3.35,5.3-7,5.3a7.45,7.45,0,0,1-4.7-1.54L26,37.87a4.27,4.27,0,0,0,2.76,1.07c1.18,0,2-.44,2.76-2.1l.06-.16-7.3-17h5l4.73,11.43L38.82,19.7Z"/><path class="cls-10" d="M94.35,21.35a20.3,20.3,0,0,1-11,18L74,48.72V41.66A20.31,20.31,0,1,1,94.35,21.35Z"/><path class="cls-17" d="M82.05,20.16v9.62H77.47v-2.1Q76.09,30,72.33,30c-4.2,0-6.3-2.35-6.3-5.11a4.4,4.4,0,0,1,1.77-3.7c1.18-.9,3-1.34,5.47-1.34h3.89c0-2.33-1.53-3.33-3.89-3.33a8.13,8.13,0,0,0-4.86,1.57L66.66,14.7a13.15,13.15,0,0,1,7.27-2C79,12.67,82.05,15,82.05,20.16Zm-4.89,4.29V22.73H73.8c-2,0-3,.66-3,2s1.29,2,2.75,2A3.61,3.61,0,0,0,77.16,24.45Z"/></g></g></svg>