<svg xmlns="http://www.w3.org/2000/svg" viewBox="0 0 87.01 66.59"><defs><style>.cls-1{fill:#70d65b;}</style></defs><title>Asset 1</title><g id="Layer_2" data-name="Layer 2"><g id="Layer_1-2" data-name="Layer 1"><path class="cls-1" d="M58.46,58.48a29.25,29.25,0,0,1-29.9,0H21.75a33.23,33.23,0,0,0,43.51,0ZM43.51,0A33.33,33.33,0,0,0,13.39,19.12c.83.36,1.64.68,3.66,1.62a29.28,29.28,0,0,1,53,.08c1.65-.79,2.91-1.3,3.66-1.63A33.32,33.32,0,0,0,43.51,0Z"/><path class="cls-1" d="M84.53,40A118.34,118.34,0,0,0,45.34,53l-.52.28-.42.24c-.16.09-.33.17-.48.27l-.2.11-.1.06h0a.51.51,0,0,1,.09-.13,2.15,2.15,0,0,1,.18-.24C46,50.76,59.27,33.92,80.94,30.87A30,30,0,0,1,84.53,40Z"/><path class="cls-1" d="M85.15,45.94a27.82,27.82,0,0,1-.31,4.21C78.41,49.8,61,49.42,43.61,54a0,0,0,0,1,0,0l.1-.06.2-.11.29-.17c.29-.16.66-.38,1.13-.62l.61-.32c5.83-3,21.83-10.31,39.1-9.07h0C85.12,44.37,85.15,45.15,85.15,45.94Z"/><path class="cls-1" d="M79.26,28.33c-9.09,3.56-26.42,11.8-35.55,25.47a.55.55,0,0,0-.09.14,0,0,0,0,0,0,0v-2.3s5.06-17.5,31-28.53A35.4,35.4,0,0,1,79.26,28.33Z"/><path class="cls-1" d="M2.68,40a118.38,118.38,0,0,1,39.2,13l.52.28.42.24c.16.09.32.17.48.27l.19.11.11.06h0a.38.38,0,0,0-.1-.13,2.07,2.07,0,0,0-.17-.24c-2.07-2.8-15.39-19.64-37-22.69A30.27,30.27,0,0,0,2.68,40Z"/><path class="cls-1" d="M2.06,45.94a27.82,27.82,0,0,0,.31,4.21c6.44-.35,23.84-.73,41.24,3.8a0,0,0,0,0,0,0l-.11-.06-.19-.11L43,53.6c-.29-.16-.67-.38-1.13-.62l-.61-.32c-5.84-3-21.83-10.31-39.11-9.07h0C2.09,44.37,2.06,45.15,2.06,45.94Z"/><path class="cls-1" d="M8,28.33C17,31.89,34.38,40.13,43.5,53.8a.41.41,0,0,1,.1.14,0,0,0,0,1,0,0v-2.3s-5.07-17.5-31-28.53A34.83,34.83,0,0,0,8,28.33Z"/><path class="cls-1" d="M87,53.53a1,1,0,0,1-1,.95H47.7a4.27,4.27,0,0,1-8.39,0H1a1,1,0,0,1,0-1.91H86.06A1,1,0,0,1,87,53.53Z"/><path class="cls-1" d="M84.53,40A118.34,118.34,0,0,0,45.34,53c-1.18.64-1.65.93-1.72,1h0a4.33,4.33,0,0,1,.27-.37C46,50.76,59.27,33.92,80.94,30.87A30,30,0,0,1,84.53,40Z"/><path class="cls-1" d="M85.15,45.94a27.82,27.82,0,0,1-.31,4.21C78.41,49.8,61,49.42,43.61,54a0,0,0,0,1,0,0c2.06-1.18,1.51-.84,2.33-1.28,5.83-3,21.83-10.31,39.1-9.07h0C85.12,44.37,85.15,45.15,85.15,45.94Z"/><path class="cls-1" d="M79.26,28.33c-9.09,3.56-26.42,11.8-35.55,25.47a.55.55,0,0,0-.09.14,0,0,0,0,0,0,0v-2.3s5.06-17.5,31-28.53A35.4,35.4,0,0,1,79.26,28.33Z"/><path class="cls-1" d="M2.68,40a118.38,118.38,0,0,1,39.2,13c1.9,1,1.62.92,1.72,1h0s-.24-.33-.27-.37c-2.07-2.8-15.39-19.64-37-22.69A30.27,30.27,0,0,0,2.68,40Z"/><path class="cls-1" d="M2.06,45.94a27.82,27.82,0,0,0,.31,4.21c6.44-.35,23.84-.73,41.24,3.8a0,0,0,0,0,0,0l-2.33-1.28c-5.84-3-21.83-10.31-39.11-9.07h0C2.09,44.37,2.06,45.15,2.06,45.94Z"/><path class="cls-1" d="M8,28.33C17,31.89,34.38,40.13,43.5,53.8a.41.41,0,0,1,.1.14,0,0,0,0,1,0,0v-2.3s-5.07-17.5-31-28.53A34.83,34.83,0,0,0,8,28.33Z"/><path class="cls-1" d="M87,53.53a1,1,0,0,1-1,.95H47.7a4.27,4.27,0,0,1-8.39,0H1a1,1,0,0,1,0-1.91H86.06A1,1,0,0,1,87,53.53Z"/></g></g></svg>