<svg xmlns="http://www.w3.org/2000/svg" xmlns:xlink="http://www.w3.org/1999/xlink" viewBox="0 0 155.4 150.24"><defs><style>.cls-1{fill:none;}.cls-2{clip-path:url(#clip-path);}.cls-3{fill:#f2f3f4;}.cls-4{fill:#80d5ff;}.cls-5{fill:#fff;}.cls-6{fill:#dfe1e2;}.cls-7{fill:#1d2120;}.cls-8{fill:#5586ff;}.cls-9{fill:#f6ad4b;}.cls-10{opacity:0.2;}.cls-11{fill:#19218e;}</style><clipPath id="clip-path"><circle class="cls-1" cx="75.12" cy="75.12" r="72.02"/></clipPath></defs><title>Asset 11</title><g id="Layer_2" data-name="Layer 2"><g id="Layer_1-2" data-name="Layer 1"><g class="cls-2"><circle class="cls-3" cx="75.12" cy="75.12" r="72.02"/><path class="cls-4" d="M3.1,75.12a72,72,0,0,0,72,72,73,73,0,0,0,9.17-.6c.06-.48.11-1,.17-1.46-4.09-3.28-8.37-6.5-12.41-10-2.5-2.17-1.65-4.56.19-6.91,1.57-2,2.83-4.27,4.23-6.41l-1.15-1.32c-1.65,0-3.39.32-4.94-.08-2-.53-5-1.13-5.67-2.57-2.86-6.18-8.63-7.39-14-9.75-4-1.77-7.63-4.53-11.28-7-.72-.49-.89-1.83-1.2-2.82-1.55-4.91-3.06-9.82-4.58-14.74l-1.24.29,1,7.21C26.85,83.31,26,68.09,31.88,59c1.49-2.3,2.43-4.25,2-7.13-.33-2.18.37-4.61,1-6.83C37.81,34.3,37.7,34,27.67,29c.92-.51,2-.74,2.36-1.37,2.56-5.18,7.82-5.59,12.42-7,1-.3,3.18.8,3.63,1.79,3.77,8.38,4.34,9.17,12.74,13.63-.63-1-1.29-2-1.87-3.05s-1.22-2.4-1.84-3.61c4-1.35,5.21-.08,8.24,8.55l2.83-4.35c.23,4.48,2.66,5.23,6,4.46l.07-.11.12,0L68,34.4l.52-1.32c1.44.21,3.18,0,4.28.72a57.36,57.36,0,0,1,9.53,7.46c.87.89-.16,3.61-.36,5.92l-7.07-2.3c2.27-4.38,1.8-5.64-2.57-6.9l0,0-.23,0A43.18,43.18,0,0,1,69.42,42c-1.76,2.12-4.09,3.9-5.39,6.26-1.41,2.59-1.58,5.31,2.48,6.46,1.39.39,2.42,2.22,3.52,3.48s1.81,2.34,2.71,3.51l1.18-.33v-16c6.29,3.94,11.88,6.82,16.7,10.68,3.13,2.51,2.13,4.45-1.81,5.8A57.42,57.42,0,0,0,82.9,64.7L92.84,67c-2.17,1.52-3.48,3-5.08,3.46-6.1,1.82-8.05,6.72-9.65,12-.29,1-.59,2.3-1.32,2.75-4.71,2.86-6.89,6.55-4.88,12.37-.68-.64-1.4-1.23-2-1.91-.42-.45-.66-1.07-1.06-1.53C67,92.13,56.76,90.9,53.56,92.55s-3.88,4.6-3.49,7.89c.41,3.46,4.69,5.79,7.42,4.21a26,26,0,0,1,4-1.49c0,1.43,0,2.85,0,4.28,0,.59-.11,1.18-.2,2.08,1.64.27,3.32.16,4.52.86s2.72,2.2,2.73,3.35c0,4.5,4.82,8.27,8,5.35,4.62-4.3,9.85-2.67,14.65-2.94,6.43-.36,13,1,19.45,1.6.45.05,1.08.13,1.28.42,4,5.94,9,2.37,13.74,1.56a37.25,37.25,0,0,1,4.31-.28,33.19,33.19,0,0,1-1.19,3.8,71.68,71.68,0,0,0,18.1-41.11,23.91,23.91,0,0,1-4.09-4.21,16.78,16.78,0,0,1-2.31-7c-1-7.08-1.71-14.19-2.41-20.21-2.33-.56-4.43-.44-5-1.35-1.17-1.69-2.59-4.48-1.93-5.9,1.37-3,.52-3.69-2.07-4.62-1-.37-1.81-2-2.35-3.15-.8-1.77-1.18-3.74-2-5.53-.95-2.17-2.2-4.21-3.18-6.36a51.63,51.63,0,0,0-3-6.22,70.47,70.47,0,0,0-6.41-4.32,1.17,1.17,0,0,0-.2-.05c-1.29,5.09,4.28,5.48,5.82,8.48-1.77,3.11-4.09,2.78-6.5.95-3.38-2.56-6.71-5.17-10-7.87A16.86,16.86,0,0,1,99,11.92l5.86-2.39q-1.11-.51-2.25-1c-1.28-.15-2.23-.32-2.6-.87l-.16-.21A72.22,72.22,0,0,0,46.64,9L45.54,10c-2.59,2.68-4.84,5.69-7,8.34-1.25-1.67-1.89-2.81-2.66-3.61A71.94,71.94,0,0,0,3.1,75.12ZM115.79,27.2c2.15,3.4,8.3,1.69,8.95,8.05L118.47,33l2.25,3.32-1.15.66-4.68-8.88ZM102.29,30c.39-.72,2.37-.57,3.63-.82-.48,2-1,3.92-1.43,5.88l-2.81-.35C101.83,33.1,101.59,31.29,102.29,30ZM70.83,23.37c.43-.94,3-.94,4.58-1.33a10,10,0,0,0,1.67-.22c6.08-2.71,16.66.12,20.06,5.7.64,1.07.25,3.18-.34,4.51-1.89,4.25-1.27,9.58,1.69,11.89-4.79,2.56-9.8,1-10.85-4.25-.94-4.67-4.17-6.56-7.34-9-1.77-1.34-3.38-2.9-5.46-4.71-.58,1.15-1.25,2.5-1.91,3.83C68.59,28.88,69.78,25.72,70.83,23.37Z"/><path class="cls-5" d="M96,62.36h27.1a2,2,0,0,1,2,2v44a2,2,0,0,1-2,2H96a0,0,0,0,1,0,0v-48A0,0,0,0,1,96,62.36Z"/><polygon class="cls-6" points="99.29 62.37 96.01 62.37 96.01 110.36 101.03 110.36 99.29 62.37"/><rect class="cls-7" x="112.32" y="62.36" width="6.21" height="47.99"/><circle class="cls-8" cx="105.32" cy="74.01" r="3.64"/><circle class="cls-9" cx="105.32" cy="70.52" r="3.64"/><polygon class="cls-5" points="88.72 20.56 86.45 17.97 84.17 20.56 81.91 17.97 79.65 20.56 77.39 17.97 75.11 20.56 72.85 17.97 70.59 20.56 68.33 17.97 66.06 20.56 63.78 17.97 61.52 20.56 59.26 17.97 59.26 47.13 90.98 47.13 90.98 17.97 88.72 20.56"/><rect class="cls-3" x="64.22" y="27.23" width="21.79" height="1.68"/><rect class="cls-3" x="64.22" y="31.6" width="21.79" height="1.68"/><rect class="cls-3" x="64.22" y="35.97" width="21.79" height="1.68"/><path class="cls-7" d="M97.08,46.15v3.79H53.17V46.15a3.71,3.71,0,0,1,3.71-3.72H93.37A3.71,3.71,0,0,1,97.08,46.15Z"/><path class="cls-7" d="M53.17,115.77H97.08v8a3.71,3.71,0,0,1-3.71,3.72H56.88a3.71,3.71,0,0,1-3.71-3.72Z"/><rect class="cls-5" x="53.16" y="49.93" width="43.93" height="65.82"/><path class="cls-7" d="M63.56,102.12H62l-.31.73h-.61l1.43-3.18h.58l1.44,3.18h-.62Zm-.19-.47-.6-1.39-.6,1.39Z"/><path class="cls-7" d="M67.76,100.8c0,.75-.58,1.14-1.36,1.14h-.72v.91h-.59V99.67H66.4C67.17,99.67,67.76,100,67.76,100.8Zm-.6,0c0-.36-.22-.63-.79-.63h-.69v1.26h.69C66.94,101.43,67.16,101.17,67.16,100.8Z"/><path class="cls-7" d="M71.2,100.8c0,.75-.58,1.14-1.36,1.14h-.72v.91h-.59V99.67h1.31C70.61,99.67,71.2,100,71.2,100.8Zm-.6,0c0-.36-.22-.63-.79-.63h-.69v1.26h.69C70.38,101.43,70.6,101.17,70.6,100.8Z"/><path class="cls-7" d="M74.05,102.85l-.65-.93h-.84v.92H72V99.67h1.31c.77,0,1.36.37,1.36,1.13a1,1,0,0,1-.68,1l.73,1Zm-.8-2.68h-.69v1.27h.69c.57,0,.79-.27.79-.64S73.82,100.17,73.25,100.17Z"/><path class="cls-7" d="M75.25,101.26A1.72,1.72,0,1,1,77,102.9,1.64,1.64,0,0,1,75.25,101.26Zm2.84,0A1.12,1.12,0,1,0,77,102.38,1.09,1.09,0,0,0,78.09,101.26Z"/><path class="cls-7" d="M82.31,99.67l-1.39,3.18h-.58l-1.4-3.18h.65l1.06,2.46,1.07-2.46Z"/><path class="cls-7" d="M85.22,102.36v.49H82.83V99.67h2.32v.49H83.42V101H85v.49H83.42v.88Z"/><path class="cls-7" d="M86.06,99.67h1.39a1.6,1.6,0,1,1,0,3.18H86.06Zm1.36,2.68a1.09,1.09,0,1,0,0-2.18h-.77v2.18Z"/><path class="cls-7" d="M75.12,91.2A11.87,11.87,0,1,1,87,79.33,11.88,11.88,0,0,1,75.12,91.2Zm0-21.88a10,10,0,1,0,10,10A10,10,0,0,0,75.12,69.32Z"/><polygon class="cls-7" points="73.46 84.22 69.71 80.46 71.46 78.71 73.45 80.7 78.77 75.33 80.54 77.08 73.46 84.22"/><path class="cls-9" d="M155.4,136.39l-19.06,12.1a70.68,70.68,0,0,1-5.62-7.94,55.43,55.43,0,0,1-18.39-30.18c-4.44-20.75-4.59-27.32.81-28.18s12,16.63,12,16.63v-19s18.64,11.3,23.3,23.84c2.06,5.51,1.64,12.17.52,17.92Z"/><g class="cls-10"><path class="cls-5" d="M117.92,90.28l-2.72-5.71s-4.4-1.35-4.64,2.63a33.05,33.05,0,0,0,.39,6.53A11,11,0,0,1,117.92,90.28Z"/></g></g><path class="cls-11" d="M75.12,150.24a75.12,75.12,0,1,1,75.12-75.12A75.21,75.21,0,0,1,75.12,150.24Zm0-144A68.92,68.92,0,1,0,144,75.12,69,69,0,0,0,75.12,6.2Z"/></g></g></svg>