<svg xmlns="http://www.w3.org/2000/svg" viewBox="0 0 62.66 110.74"><defs><style>.cls-1{fill:#c98777;}.cls-2{fill:#76cae4;}.cls-3{fill:#bf7667;}.cls-4{fill:#36516f;}.cls-5{fill:#3e5d7c;}.cls-6{fill:#6374de;}.cls-7{fill:#465ed3;}.cls-8{fill:#a07092;}.cls-9{fill:#d0cbde;}.cls-10{fill:#b285a2;}.cls-11{fill:#fdffff;}.cls-12{fill:#ca8878;}.cls-13{fill:#14324c;}</style></defs><title>Asset 8</title><g id="Layer_2" data-name="Layer 2"><g id="Layer_1-2" data-name="Layer 1"><rect class="cls-1" x="3.49" y="105.23" width="1.71" height="4.01" transform="translate(8.68 214.47) rotate(-180)"/><path class="cls-2" d="M5.23,108.61a.13.13,0,0,1,.1,0,.12.12,0,0,1,0,.1v.6l1.06.17a1.53,1.53,0,0,1,1.28,1.23h-4a.4.4,0,0,1-.4-.4v-1.61a.12.12,0,0,1,.16-.12A3.92,3.92,0,0,0,5.23,108.61Z"/><polygon class="cls-1" points="12.03 108.77 13.74 108.77 13.53 105.23 11.82 105.23 12.03 108.77"/><path class="cls-2" d="M13.77,108.61a.14.14,0,0,1,.11,0,.12.12,0,0,1,0,.1v.6l1.05.17a1.55,1.55,0,0,1,1.29,1.23h-4a.4.4,0,0,1-.4-.4v-1.61a.14.14,0,0,1,.05-.1.12.12,0,0,1,.1,0A3.92,3.92,0,0,0,13.77,108.61Z"/><path class="cls-3" d="M24.5,39.72a.58.58,0,0,0-.8.24h0a36.44,36.44,0,0,1-3.36,5.28,14.7,14.7,0,0,1-4.42,3.83,20.39,20.39,0,0,1-5.57,1.85c-.46.1-.94.18-1.41.26l1.28,4.42c.46-.17.92-.32,1.39-.51a24.17,24.17,0,0,0,6.14-3.28,17.31,17.31,0,0,0,4.45-5.32,36.43,36.43,0,0,0,2.59-6.07A.59.59,0,0,0,24.5,39.72Z"/><path class="cls-3" d="M25.94,39c-1.91,3-1.43,1.56-1.43,1.56l-.88-.4s-.33-1.91.3-2.26c.3-.17.41.54.44.91a2.6,2.6,0,0,0,.13-2C24,35.56,27.18,37.11,25.94,39Z"/><path class="cls-4" d="M4.9,68.77a3.63,3.63,0,0,0,.06.67l6.84,38c0,.36,2,.16,2-.21L13.2,68.64a4.15,4.15,0,1,0-8.3.13Z"/><path class="cls-5" d="M.25,68.28a3.86,3.86,0,0,0,0,.68l3.14,38.42c0,.34,2,.34,2,0L8.53,69a4.15,4.15,0,1,0-8.28-.68Z"/><path class="cls-6" d="M13.49,68.85V46.76A6.52,6.52,0,0,0,10.27,41C7.85,39.68,5.7,39.5,3.78,40.3a6.44,6.44,0,0,0-3.78,6V68.85C0,70.25,13.49,70.25,13.49,68.85Z"/><path class="cls-7" d="M4.78,49.91S4.69,57,5.4,58.12,4,59.32,4,59.32l-1.58-4Z"/><path class="cls-8" d="M20.67,44.52l-2.17,1.2-.92-9.07,4.92-.5-.19,5.68A3.22,3.22,0,0,1,20.67,44.52Z"/><path class="cls-9" d="M17.65,61.64h0A4.25,4.25,0,0,1,13,58L10.51,37.62l8.56-3.74L21.45,57A4.25,4.25,0,0,1,17.65,61.64Z"/><path class="cls-10" d="M22.68,18.73l2,20.05L12.38,40a10.08,10.08,0,0,1-2-20Z"/><circle class="cls-10" cx="55.83" cy="25.51" r="6.83" transform="translate(22.25 76.89) rotate(-81.39)"/><polygon class="cls-9" points="51.86 3.02 56.45 48.33 24.71 38.78 22.68 18.73 51.86 3.02"/><rect class="cls-11" x="54.15" y="-0.03" width="3.36" height="51.08" rx="0.77" transform="translate(-2.29 5.76) rotate(-5.79)"/><path class="cls-1" d="M16.7,51.4a.73.73,0,0,0-1-.25c-2,1.22-4,2.49-6,3.74-1,.63-2,1.26-3,1.82-.49.28-1,.55-1.44.77a4.28,4.28,0,0,1-.73.28,6.82,6.82,0,0,1-.11-.86,29.56,29.56,0,0,1,.07-3.22c.06-.81.14-1.63.22-3.77a12.34,12.34,0,0,1-4.77,0c0,2.14.07,3,.12,3.78a33.49,33.49,0,0,0,.46,3.78,7.26,7.26,0,0,0,.85,2.31,3.23,3.23,0,0,0,1.48,1.31,3.19,3.19,0,0,0,1.87.14,6.61,6.61,0,0,0,2.11-1,18.86,18.86,0,0,0,1.53-1.11c1-.75,1.85-1.52,2.74-2.28,1.79-1.53,3.56-3,5.37-4.52A.74.74,0,0,0,16.7,51.4ZM4.33,57.82a.26.26,0,0,1-.12,0C4.12,57.84,4.19,57.79,4.33,57.82Z"/><path class="cls-3" d="M0,49.91c0,.23,0,.43,0,.64a13.49,13.49,0,0,0,4.74,0c0-.19,0-.41,0-.62A12.39,12.39,0,0,1,0,49.91Z"/><path class="cls-1" d="M15.22,51.43s.7-1.57,1.26-1.61L16.2,51s1.57-1.22,1.83-1.93,2.21,1.86-1.66,3.35"/><path class="cls-12" d="M8.46,41V30.87L4.82,30V40.09a2.41,2.41,0,0,0,1.82,2.17h0A1.33,1.33,0,0,0,8.46,41Z"/><path class="cls-12" d="M10.4,38.62a1.88,1.88,0,0,1-2.57-.14A12.6,12.6,0,0,1,4.42,31.2c-.12-1.18-.19-2.06-.19-2.06C4.42,28.23,7,25,9.66,27.07,11.83,28.77,12.67,36.48,10.4,38.62Z"/><path class="cls-13" d="M6.11,30.07c.65,2.47-.73,5.88-1.29,5.67S2.94,29.32,3.54,28c.34-.71,1-.65,1.55-.43a3.78,3.78,0,0,1,.42-1.67c.68-1.43,2.61-1.59,4.59-.94A5.8,5.8,0,0,0,14,24.72a4.06,4.06,0,0,1-1.61,2.06,8,8,0,0,0,1.84,0h.09C13.22,29.62,8,30,6.11,30.07Z"/><ellipse class="cls-12" cx="5.93" cy="33.57" rx="0.87" ry="1.55" transform="matrix(0.96, -0.28, 0.28, 0.96, -9.06, 2.95)"/><path class="cls-3" d="M8.46,38.91v.91a9.59,9.59,0,0,1-2.84-4.5A12.54,12.54,0,0,0,8.46,38.91Z"/></g></g></svg>