<?xml version="1.0" encoding="UTF-8"?>
<svg width="148px" height="148px" viewBox="0 0 148 148" version="1.1" xmlns="http://www.w3.org/2000/svg" xmlns:xlink="http://www.w3.org/1999/xlink">
    <!-- Generator: Sketch 52.4 (67378) - http://www.bohemiancoding.com/sketch -->
    <title>register-login</title>
    <desc>Created with Sketch.</desc>
    <defs>
        <circle id="path-1" cx="70.88" cy="70.88" r="70.83"></circle>
    </defs>
    <g id="Page-1" stroke="none" stroke-width="1" fill="none" fill-rule="evenodd">
        <g id="register-login">
            <g id="Group" transform="translate(3.000000, 3.000000)">
                <mask id="mask-2" fill="white">
                    <use xlink:href="#path-1"></use>
                </mask>
                <use id="Mask" fill="#FFFFFF" xlink:href="#path-1"></use>
                <g mask="url(#mask-2)">
                    <g transform="translate(-2.000000, 23.000000)">
                        <path d="M129.08,57.4 L121.24,57.4 L122.03,60.92 C116.03,62.86 108.03,58.21 102.32,54.92 L102.32,57.92 C107.92,62.28 114.09,67.21 121.01,67.21 C122.476037,67.215794 123.922455,66.8730409 125.23,66.21 C126.539153,65.5052442 127.589905,64.4019539 128.23,63.06 C129.007799,61.2813876 129.30106,59.3286177 129.08,57.4 Z" id="Path" fill="#CA8878"></path>
                        <path d="M102.54,3.59 C97.4424118,3.59 93.31,7.72241176 93.31,12.82 L93.31,32.92 C93.31,38.0175882 97.4424118,42.15 102.54,42.15 C107.637588,42.15 111.77,38.0175882 111.77,32.92 L111.77,12.82 C111.764489,7.72469641 107.635304,3.59551142 102.54,3.59 Z" id="Path" fill="#14324C"></path>
                        <path d="M75.56,57.4 L83.39,57.4 L82.6,60.92 C88.65,62.86 96.6,58.21 102.32,54.92 L102.32,57.92 C96.71,62.28 90.54,67.21 83.62,67.21 C82.1539634,67.215794 80.7075449,66.8730409 79.4,66.21 C78.0908473,65.5052442 77.0400946,64.4019539 76.4,63.06 C75.6218915,61.2815336 75.3319369,59.3277922 75.56,57.4 Z" id="Path" fill="#CA8878"></path>
                        <path d="M129.51,58.49 C129.51,59.49 121.22,59.83 121.17,58.81 C120.888563,58.0315183 120.554457,57.2730983 120.17,56.54 C119.282134,54.7874424 118.194939,53.1432276 116.93,51.64 C116.56,51.2 116.2,50.76 115.81,50.35 L115.81,75.84 C115.81,78.21 109,79.38 102.28,79.35 C95.56,79.32 88.72,78.21 88.72,75.84 L88.72,50.35 C88.33,50.76 87.97,51.2 87.6,51.64 C86.3350609,53.1432276 85.2478659,54.7874424 84.36,56.54 C83.9755427,57.2730983 83.641437,58.0315183 83.36,58.81 C83.36,59.81 75,59.51 75.02,58.49 C75.0500371,57.2257541 75.1973354,55.9670236 75.46,54.73 C76.1329319,52.0412429 77.1408154,49.4476226 78.46,47.01 C79.7196838,44.7278818 81.1610039,42.550853 82.77,40.5 C87.3647593,34.3727798 94.5763683,30.7666666 102.235,30.7666666 C109.893632,30.7666666 117.105241,34.3727798 121.7,40.5 C123.342906,42.5398112 124.811411,44.7141352 126.09,47 C127.409185,49.4376226 128.417068,52.0312429 129.09,54.72 C129.3515,55.9601415 129.492158,57.2227136 129.51,58.49 Z" id="Path" fill="#FE3E00"></path>
                        <polygon id="Path" fill="#304F68" points="91.73 80.31 92.31 79.01 91.49 80.01"></polygon>
                        <rect id="Rectangle" fill="#D7D0C8" transform="translate(102.530000, 102.225000) rotate(-180.000000) translate(-102.530000, -102.225000) " x="100.69" y="84.59" width="3.68" height="35.27"></rect>
                        <rect id="Rectangle" fill="#FC5C4C" transform="translate(102.535000, 84.825000) rotate(-180.000000) translate(-102.535000, -84.825000) " x="85.79" y="81.92" width="33.49" height="5.81" rx="1.19"></rect>
                        <path d="M90.63,81.8 C90.63,83.7 114.45,83.7 114.45,81.8 C114.45,78.7182511 111.951749,76.22 108.87,76.22 L96.2,76.22 C94.7210099,76.2199976 93.302741,76.8082077 92.2578755,77.8549492 C91.2130099,78.9016906 90.6273447,80.3210123 90.63,81.8 Z" id="Path" fill="#2C485E"></path>
                        <path d="M99.36,26.11 L99.36,31.92 C99.2939283,33.0968378 99.884215,34.2136872 100.893796,34.8220119 C101.903377,35.4303366 103.166623,35.4303366 104.176204,34.8220119 C105.185785,34.2136872 105.776072,33.0968378 105.71,31.92 L105.71,26.11 L99.36,26.11 Z" id="Path" fill="#CA8878"></path>
                        <path d="M99.36,26.11 L99.36,29.57 C101.205009,31.0865858 103.864991,31.0865858 105.71,29.57 L105.71,26.11 L99.36,26.11 Z" id="Path" fill="#BF7667"></path>
                        <path d="M95.62,14 C95.2562235,15.1828218 95.0675567,16.4125253 95.06,17.65 C95,33.7 110,33.71 110,17.65 C109.992443,16.4125253 109.803776,15.1828218 109.44,14 C104.957037,15.5097858 100.102963,15.5097858 95.62,14 Z" id="Path" fill="#CA8878"></path>
                        <path d="M103.74,55.76 C103.653127,54.7036146 103.252674,53.6972605 102.59,52.87 L102.53,54.32 C101.531674,53.9090582 100.741849,53.1120208 100.34,52.11 C99.73,50.47 98.34,50.91 98.02,53.21 C97.7,55.51 102.08,57.73 102.08,57.73 L103.74,55.76 Z" id="Path" fill="#CA8878"></path>
                        <path d="M79.46,43.21 L82.63,67.53 C82.7755867,68.7315263 83.7897384,69.6386999 85,69.65 L118.35,69.65 C119.578098,69.6555724 120.618949,68.7475045 120.78,67.53 L124,43.21 C124.095644,42.5123053 123.883911,41.8074315 123.419636,41.2779277 C122.955361,40.7484239 122.284211,40.4463728 121.58,40.45 L81.87,40.45 C81.1675319,40.4492739 80.49912,40.7525752 80.0370844,41.2817114 C79.5750489,41.8108476 79.3646027,42.5140393 79.46,43.21 Z" id="Path" fill="#C0C0C0"></path>
                        <ellipse id="Oval" fill="#D7D0C8" cx="101.71" cy="55.05" rx="3.39" ry="2.14"></ellipse>
                        <path d="M98.66,80 C98.6748765,80.2831381 98.6748765,80.5668619 98.66,80.85 L96.49,146.58 C96.49,147 94,147 93.99,146.58 L88.27,80.85 C88.1079251,79.4868697 88.5077545,78.1164967 89.377431,77.0543973 C90.2471074,75.9922978 91.5116829,75.3300029 92.88,75.22 C95.7794333,74.9971089 98.3346745,77.1102669 98.66,80 Z" id="Path" fill="#3E5D7C"></path>
                        <path d="M106.42,80 C106.400203,80.2829875 106.400203,80.5670125 106.42,80.85 L108.6,146.58 C108.6,147 111.08,147 111.09,146.58 L116.81,80.85 C116.986889,79.4841236 116.592531,78.1057689 115.719971,77.0401482 C114.847411,75.9745275 113.573932,75.3160216 112.2,75.22 C109.297165,74.9863487 106.735395,77.1049054 106.42,80 Z" id="Path" fill="#3E5D7C"></path>
                        <rect id="Rectangle" fill="#D7D0C8" x="0.65" y="69.65" width="145.97" height="4.76" rx="0.98"></rect>
                        <polygon id="Path" fill="#304F68" points="52.23 80.31 51.64 79.01 52.46 80.01"></polygon>
                        <rect id="Rectangle" fill="#D7D0C8" x="39.58" y="84.58" width="3.68" height="35.27"></rect>
                        <rect id="Rectangle" fill="#FC5C4C" x="24.67" y="81.93" width="33.49" height="5.81" rx="1.19"></rect>
                        <path d="M53.33,81.8 C53.33,83.7 29.51,83.7 29.51,81.8 C29.51,78.7182511 32.0082511,76.22 35.09,76.22 L47.75,76.22 C50.8317489,76.22 53.33,78.7182511 53.33,81.8 Z" id="Path" fill="#2C485E"></path>
                        <path d="M42.19,54.64 C36.41,57.92 28.19,62.94 21.92,60.94 L22.71,57.42 L14.88,57.42 C14.6519795,59.3454739 14.9455486,61.2968448 15.73,63.07 C16.3700946,64.4119539 17.4208473,65.5152442 18.73,66.22 C20.0375449,66.8830409 21.4839634,67.225794 22.95,67.22 C30.55,67.22 37.24,61.28 43.28,56.68 L42.19,54.64 Z" id="Path" fill="#CA8878"></path>
                        <path d="M64.33,43.35 L59.16,52.25 L58.87,52 L57.57,51 C56.67,50.3333333 55.72,49.6333333 54.72,48.9 L54.72,75.83 C54.72,80.51 28.07,80.51 28.07,75.83 L28.07,50.35 C27.68,50.76 27.32,51.2 26.95,51.64 C25.6850609,53.1432276 24.5978659,54.7874424 23.71,56.54 C23.3425949,57.2744187 23.0252062,58.0328108 22.76,58.81 C22.71,59.81 14.4,59.51 14.42,58.49 C14.4500371,57.2257541 14.5973354,55.9670236 14.86,54.73 C15.5329319,52.0412429 16.5408154,49.4476226 17.86,47.01 C19.1172816,44.7264278 20.5587272,42.5492095 22.17,40.5 C27.1998026,33.9536007 35.1371337,30.3123828 43.38,30.77 L43.66,30.77 C49.5036131,31.3050044 54.9728167,33.878539 59.11,38.04 C60.88,39.79 62.63,41.54 64.33,43.35 Z" id="Path" fill="#6374DE"></path>
                        <path d="M44.59,25.07 L44.59,30.89 C44.4954342,32.574361 43.1020136,33.8917446 41.415,33.8917446 C39.7279864,33.8917446 38.3345658,32.574361 38.24,30.89 L38.24,25.07 L44.59,25.07 Z" id="Path" fill="#CA8878"></path>
                        <path d="M44.59,25.07 L44.59,28.53 C42.7449907,30.0465858 40.0850093,30.0465858 38.24,28.53 L38.24,25.07 L44.59,25.07 Z" id="Path" fill="#BF7667"></path>
                        <ellipse id="Oval" fill="#CA8878" transform="translate(48.889856, 19.286820) rotate(-77.830000) translate(-48.889856, -19.286820) " cx="48.8898561" cy="19.2868198" rx="2.37" ry="1.69"></ellipse>
                        <ellipse id="Oval" fill="#CA8878" transform="translate(33.959936, 19.282374) rotate(-12.170000) translate(-33.959936, -19.282374) " cx="33.9599356" cy="19.2823736" rx="1.69" ry="2.37"></ellipse>
                        <path d="M48.9,16.61 C48.9,32.61 33.97,32.67 33.96,16.61 C33.96,11.11 37.3,6.61 41.43,6.61 C45.56,6.61 48.89,11.11 48.9,16.61 Z" id="Path" fill="#CA8878"></path>
                        <path d="M34.29,20.47 C34.29,20.47 36.79,14.26 36.89,9.89 C36.99,5.52 33.4,9.07 33.4,9.07 C33.4,9.07 31.88,16.33 34.29,20.47 Z" id="Path" fill="#14324C"></path>
                        <path d="M51.87,10 C51.52,14.77 48.67,19.84 48.67,19.84 C47.2569763,16.9181607 46.3539641,13.7762192 46,10.55 C42.74,12.55 35.94,14.18 27.61,11.47 C34.23,7.47 34.92,0.39 42.79,0.92 C45.0878914,1.05745923 47.2251602,2.14420609 48.69,3.92 C49.302742,4.60936883 49.6031434,5.52143081 49.52,6.44 C51.0380819,6.93291386 52.013356,8.41035046 51.87,10 Z" id="Path" fill="#14324C"></path>
                        <path d="M40.22,55.76 C40.306366,54.7052494 40.7030311,53.6996685 41.36,52.87 L41.43,54.32 C42.4245441,53.9068395 43.2104703,53.1100978 43.61,52.11 C44.22,50.47 45.67,50.91 45.94,53.21 C46.21,55.51 41.88,57.73 41.88,57.73 L40.22,55.76 Z" id="Path" fill="#CA8878"></path>
                        <path d="M64.5,43.21 L61.33,67.53 C61.1736111,68.7459501 60.1359557,69.6549706 58.91,69.65 L25.57,69.65 C24.3397485,69.6561875 23.2956939,68.7490581 23.13,67.53 L20,43.21 C19.901136,42.5133856 20.1103433,41.8082341 20.5731197,41.2782495 C21.0358962,40.7482648 21.7064169,40.445927 22.41,40.45 L62.08,40.45 C62.7831069,40.4496903 63.4521724,40.7527 63.9157137,41.281367 C64.3792551,41.8100339 64.5922108,42.5129659 64.5,43.21 Z" id="Path" fill="#C0C0C0"></path>
                        <ellipse id="Oval" fill="#D7D0C8" cx="42.24" cy="55.05" rx="3.39" ry="2.14"></ellipse>
                        <path d="M45.3,80 C45.2851967,80.28314 45.2851967,80.56686 45.3,80.85 L47.48,146.58 C47.48,147 49.96,147 49.97,146.58 L55.7,80.85 C55.859141,79.4858197 55.4569075,78.115553 54.5856594,77.0538372 C53.7144113,75.9921215 52.449005,75.3301777 51.08,75.22 C48.1788688,74.9917472 45.6203777,77.1075927 45.3,80 Z" id="Path" fill="#3E5D7C"></path>
                        <path d="M37.54,80 C37.5548765,80.2831381 37.5548765,80.5668619 37.54,80.85 L35.37,146.58 C35.37,147 32.89,147 32.87,146.58 L27.15,80.85 C26.9879251,79.4868697 27.3877545,78.1164967 28.257431,77.0543973 C29.1271074,75.9922978 30.3916829,75.3300029 31.76,75.22 C34.6594333,74.9971089 37.2146745,77.1102669 37.54,80 Z" id="Path" fill="#3E5D7C"></path>
                    </g>
                </g>
            </g>
            <path d="M73.88,147.76 C33.0772027,147.76 4.99690151e-15,114.682797 0,73.88 C-4.99690151e-15,33.0772027 33.0772027,7.49535227e-15 73.88,0 C114.682797,-7.49535227e-15 147.76,33.0772027 147.76,73.88 C147.693931,114.655399 114.655399,147.693931 73.88,147.76 Z M73.88,6.09 C46.4605948,6.08595524 21.7388319,22.5998938 11.2430771,47.9309603 C0.747322195,73.2620268 6.54467825,102.421354 25.9316956,121.811232 C45.318713,141.20111 74.4771851,147.002767 99.8097997,136.51075 C125.142414,126.018732 141.66,101.299406 141.66,73.88 C141.615928,36.4627903 111.297203,6.13959171 73.88,6.09 Z" id="Shape" fill="#19218E" fill-rule="nonzero"></path>
        </g>
    </g>
</svg>