<?xml version="1.0" encoding="UTF-8"?>
<svg width="20px" height="20px" viewBox="0 0 20 20" version="1.1" xmlns="http://www.w3.org/2000/svg" xmlns:xlink="http://www.w3.org/1999/xlink">
    <!-- Generator: Sketch 52.4 (67378) - http://www.bohemiancoding.com/sketch -->
    <title>youtube</title>
    <desc>Created with Sketch.</desc>
    <g id="Page-1" stroke="none" stroke-width="1" fill="none" fill-rule="evenodd">
        <g id="youtube">
            <path d="M9.97664384,0 C15.4869178,0 19.9533562,4.46705479 19.9533562,9.97671233 C19.9533562,15.4863699 15.4869178,19.9533562 9.97664384,19.9533562 C4.46636986,19.9533562 0,15.4863014 0,9.97671233 C0,4.46712329 4.46643836,0 9.97664384,0 Z" id="Path" fill="#C4302B"></path>
            <path d="M9.7359589,8.10664384 C10.0514384,8.10664384 10.2984247,8.00623288 10.4792466,7.86349315 C10.6588356,7.72006849 10.7486301,7.52493151 10.7486301,7.27424658 L10.7486301,5.76150685 C10.7486301,5.53890411 10.6569863,5.35493151 10.4742466,5.21342466 C10.290274,5.07184932 10.0552055,5.00143836 9.76712329,5.00143836 C9.45226027,5.00143836 9.20034247,5.06815068 9.01390411,5.20219178 C8.82684932,5.33684932 8.73328767,5.51643836 8.73328767,5.7440411 L8.73328767,7.26171233 C8.73328767,7.51109589 8.82431507,7.70815068 9.00636986,7.8559589 C9.18842466,8.00376712 9.43232877,8.10664384 9.7359589,8.10664384 Z M9.40616438,5.81767123 C9.40616438,5.76027397 9.43609589,5.71417808 9.49534247,5.67739726 C9.55520548,5.64184932 9.63253425,5.62438356 9.72732877,5.62438356 C9.83082192,5.62438356 9.91438356,5.64184932 9.97739726,5.67739726 C10.0410274,5.71417808 10.0721918,5.76034247 10.0721918,5.81767123 L10.0721918,7.25554795 C10.0721918,7.32664384 10.0410274,7.38273973 9.97863014,7.42328767 C9.91630137,7.46321918 9.83273973,7.48376712 9.72732877,7.48376712 C9.62445205,7.48376712 9.54465753,7.46445205 9.48910959,7.42390411 C9.43424658,7.38458904 9.40616438,7.32849315 9.40616438,7.25554795 L9.40616438,5.81767123 Z M11.8236301,8.10479452 C11.934589,8.10479452 12.0474658,8.04116438 12.164726,7.97760274 C12.2832192,7.91273973 12.3960274,7.81794521 12.504589,7.69452055 L12.504589,8.03061644 L13.0938356,8.03061644 L13.0938356,4.99705479 L12.504589,4.99705479 L12.504589,7.29979452 C12.449726,7.36527397 12.3886301,7.41952055 12.3231507,7.46253425 C12.2564384,7.50493151 12.2015753,7.52678082 12.1585616,7.52678082 C12.1030822,7.52678082 12.0625342,7.51116438 12.0388356,7.47815068 C12.0139041,7.44636986 12.0002055,7.39458904 12.0002055,7.32349315 L12.0002055,4.99767123 L11.4121918,4.99767123 L11.4121918,7.53239726 C11.4121918,7.71321918 11.4477397,7.84856164 11.5156849,7.93835616 C11.5847945,8.02869863 11.6870548,8.10479452 11.8236301,8.10479452 Z M13.5371233,9.35876712 L6.41623288,9.35876712 C5.28390411,9.35876712 4.36664384,10.2410959 4.36664384,11.3279452 L4.36664384,12.9928082 C4.36664384,14.080274 5.28390411,14.9626027 6.41623288,14.9626027 L13.5370548,14.9626027 C14.6687671,14.9626027 15.5866438,14.080274 15.5866438,12.9928082 L15.5866438,11.3279452 C15.5867123,10.2410274 14.6688356,9.35876712 13.5371233,9.35876712 Z M7.47561644,11.0485616 L6.84589041,11.0485616 L6.84589041,13.6562329 L6.23671233,13.6562329 L6.23671233,11.0485616 L5.60691781,11.0485616 L5.60691781,10.6039726 L7.47568493,10.6039726 C7.47561644,10.6039726 7.47561644,11.0485616 7.47561644,11.0485616 Z M9.355,13.6923973 L8.69842466,13.6923973 L8.69842466,13.4217808 C8.57623288,13.5215753 8.45089041,13.5982192 8.31869863,13.6493836 C8.18835616,13.7030137 8.06116438,13.7285616 7.93773973,13.7285616 C7.78561644,13.7285616 7.67212329,13.6917808 7.59479452,13.6176027 C7.51869863,13.5446575 7.47945205,13.4349315 7.47945205,13.2883562 L7.47945205,11.2294521 L8.1360274,11.2294521 L8.1360274,13.1181507 C8.1360274,13.1767808 8.14972603,13.2179452 8.1759589,13.2441096 C8.20465753,13.2708904 8.25013699,13.2827397 8.31130137,13.2827397 C8.35869863,13.2827397 8.4210274,13.2658904 8.49458904,13.2309589 C8.56876712,13.1966438 8.63678082,13.1530137 8.69849315,13.0987671 L8.69849315,11.2287671 L9.35506849,11.2287671 C9.355,11.2287671 9.355,13.6923973 9.355,13.6923973 Z M11.840411,13.2234932 C11.840411,13.385 11.7892466,13.5078082 11.6876712,13.5945205 C11.5872603,13.6811644 11.4389041,13.7235616 11.2474658,13.7235616 C11.1196575,13.7235616 11.0061644,13.7073288 10.9076027,13.6743151 C10.8084932,13.6413014 10.7149315,13.590137 10.630137,13.5196575 L10.630137,13.6942466 L9.97479452,13.6942466 L9.97479452,10.6039726 L10.630137,10.6039726 L10.630137,11.5997945 C10.7186986,11.5312329 10.8115753,11.4776027 10.9082192,11.4414384 C11.0073288,11.4046575 11.1071233,11.3871918 11.2075342,11.3871918 C11.4126712,11.3871918 11.5691781,11.4352055 11.6770548,11.5318493 C11.7861644,11.6291096 11.840411,11.7719178 11.840411,11.9583562 C11.840411,11.9582877 11.840411,13.2234932 11.840411,13.2234932 Z M14.3383562,12.5282192 L13.1286986,12.5282192 L13.1286986,12.9734247 C13.1286986,13.0975342 13.1486301,13.1835616 13.190411,13.2321918 C13.2328082,13.2802055 13.3045205,13.3039041 13.4049315,13.3039041 C13.5109589,13.3039041 13.5832877,13.2833562 13.6256849,13.2428082 C13.6668493,13.2016438 13.6893151,13.1124658 13.6893151,12.9728082 L13.6893151,12.8655479 L14.3396575,12.8655479 L14.3396575,12.9865068 C14.3396575,13.2284247 14.2617123,13.4105479 14.1008219,13.5333562 C13.9424658,13.6555479 13.7054795,13.7166438 13.3906164,13.7166438 C13.1069178,13.7166438 12.8836986,13.6517808 12.7209589,13.5221233 C12.5588356,13.3936986 12.4765068,13.2141096 12.4765068,12.9871233 L12.4765068,11.9258219 C12.4765068,11.7219178 12.5663014,11.5535616 12.7458904,11.4245205 C12.924863,11.2960959 13.1543151,11.2318493 13.4380137,11.2318493 C13.7273288,11.2318493 13.9499315,11.2917123 14.1058219,11.4108219 C14.2610959,11.5299315 14.3384247,11.7019863 14.3384247,11.925274 C14.3383562,11.925274 14.3383562,12.5282192 14.3383562,12.5282192 Z M7.12273973,8.11356164 L7.86664384,8.11356164 L7.86664384,6.30089041 L8.73273973,3.74438356 L7.97636986,3.74438356 L7.51616438,5.49157534 L7.46876712,5.49157534 L6.98616438,3.74438356 L6.2360274,3.74438356 L7.12267123,6.38260274 C7.12273973,6.38260274 7.12273973,8.11356164 7.12273973,8.11356164 Z M10.9013699,11.7487671 L10.7635616,11.7712329 L10.6295205,11.8404795 L10.6295205,13.2608904 C10.6819178,13.2976712 10.7336301,13.3257534 10.7835616,13.3413014 L10.9400685,13.3656164 C11.019863,13.3656164 11.0778767,13.35 11.115274,13.3169863 C11.1520548,13.2852055 11.1713699,13.2328082 11.1713699,13.1610959 L11.1713699,11.9832192 C11.1713699,11.905274 11.1495205,11.8472603 11.1034247,11.8080137 C11.0560274,11.7687671 10.9893151,11.7487671 10.9013699,11.7487671 Z" id="Shape" fill="#FFFFFF" fill-rule="nonzero"></path>
            <path d="M13.439863,11.645274 C13.3388356,11.645274 13.2671233,11.6665068 13.2228767,11.710137 C13.1792466,11.7519178 13.1580137,11.8230137 13.1580137,11.9221233 L13.1580137,12.1603425 L13.7173288,12.1603425 L13.7173288,11.9221233 C13.7173288,11.8230137 13.6942466,11.7525342 13.6506164,11.710137 C13.6075342,11.6665068 13.5358904,11.645274 13.439863,11.645274 Z" id="Path" fill="#FFFFFF"></path>
        </g>
    </g>
</svg>