<?xml version="1.0" encoding="UTF-8"?>
<svg width="30px" height="30px" viewBox="0 0 30 30" version="1.1" xmlns="http://www.w3.org/2000/svg" xmlns:xlink="http://www.w3.org/1999/xlink">
    <!-- Generator: Sketch 52.4 (67378) - http://www.bohemiancoding.com/sketch -->
    <title>location</title>
    <desc>Created with Sketch.</desc>
    <g id="Page-1" stroke="none" stroke-width="1" fill="none" fill-rule="evenodd">
        <g id="location" fill="#4E5FFB">
            <path d="M27.4411523,21.0335156 C27.0155859,20.7997852 26.4812695,20.9552344 26.2476563,21.380625 C26.0139258,21.8060742 26.1693164,22.3404492 26.5947656,22.5741211 C27.6417187,23.1492773 28.2421875,23.7868945 28.2421875,24.3234961 C28.2421875,24.9798047 27.3123047,25.9969922 24.7023633,26.8836914 C22.1239453,27.7597852 18.6782227,28.2421875 15,28.2421875 C11.3217773,28.2421875 7.87605469,27.7597852 5.29763672,26.8836914 C2.68769531,25.9970508 1.7578125,24.9798047 1.7578125,24.3234961 C1.7578125,23.7868945 2.35828125,23.1492773 3.40523438,22.5740625 C3.83068359,22.3403906 3.98607422,21.8060156 3.75234375,21.3805664 C3.51861328,20.9551758 2.98441406,20.7997266 2.55884766,21.033457 C1.39154297,21.6747656 0,22.7661328 0,24.3234961 C0,25.5172852 0.821015625,27.2193164 4.73214844,28.5481055 C7.48792969,29.484375 11.1344531,30 15,30 C18.8655469,30 22.5120703,29.484375 25.2678516,28.5481055 C29.1789844,27.2193164 30,25.5172852 30,24.3234961 C30,22.7661328 28.608457,21.6747656 27.4411523,21.0335156 Z" id="Path"></path>
            <path d="M8.364375,25.6130859 C10.1485547,26.1171094 12.5051367,26.3947266 15,26.3947266 C17.4948633,26.3947266 19.8514453,26.117168 21.635625,25.6130859 C23.818418,24.9965039 24.9251953,24.1038867 24.9251953,22.9602539 C24.9251953,21.8165625 23.818418,20.9240625 21.635625,20.3074805 C21.1510547,20.1706055 20.6240625,20.0505469 20.0637891,19.948125 C19.7595117,20.4738281 19.4407031,21.0149414 19.1073633,21.5716406 C19.7275195,21.6646875 20.3097656,21.7787695 20.8385156,21.9134766 C22.4449219,22.3226367 23.0317969,22.7832422 23.1524414,22.9603125 C23.0317383,23.1374414 22.4449805,23.5980469 20.8385742,24.0071484 C19.318125,24.3943945 17.3619141,24.615293 15.301582,24.6350391 C15.2017969,24.6424219 15.10125,24.646582 15,24.646582 C14.8986914,24.646582 14.7982031,24.6424219 14.6983594,24.6350391 C12.6380273,24.615293 10.6818164,24.3944531 9.16136719,24.0071484 C7.55496094,23.5980469 6.96814453,23.1373828 6.8475,22.9603125 C6.96814453,22.7832422 7.55501953,22.3226367 9.16142578,21.9134766 C9.69017578,21.7788281 10.2724219,21.6646875 10.8926367,21.5716406 C10.5592969,21.015 10.2404883,20.4737695 9.93621094,19.948125 C9.3759375,20.0506055 8.84888672,20.1706055 8.364375,20.3074805 C6.18158203,20.9240625 5.07480469,21.8166211 5.07480469,22.9602539 C5.07480469,24.1038867 6.18158203,24.9964453 8.364375,25.6130859 Z" id="Path"></path>
            <path d="M15,22.8887109 C15.7824023,22.8887109 16.4930859,22.4900391 16.90125,21.8222461 C19.7612109,17.143125 23.1703125,10.9763672 23.1703125,8.17025391 C23.1703125,3.66515625 19.5051563,0 15,0 C10.4948438,0 6.8296875,3.66515625 6.8296875,8.17025391 C6.8296875,10.9763672 10.2388477,17.143125 13.09875,21.8222461 C13.5069141,22.4900391 14.2176563,22.8887109 15,22.8887109 Z M11.7159961,7.60927734 C11.7159961,5.79855469 13.1892187,4.32539063 15,4.32539063 C16.8107812,4.32539063 18.2840039,5.79855469 18.2840039,7.60927734 C18.2840039,9.42005859 16.8107812,10.8932227 15,10.8932227 C13.1892187,10.8932227 11.7159961,9.42011719 11.7159961,7.60927734 Z" id="Shape" fill-rule="nonzero"></path>
        </g>
    </g>
</svg>