<?xml version="1.0" encoding="UTF-8"?>
<svg width="30px" height="24px" viewBox="0 0 30 24" version="1.1" xmlns="http://www.w3.org/2000/svg" xmlns:xlink="http://www.w3.org/1999/xlink">
    <!-- Generator: Sketch 52.4 (67378) - http://www.bohemiancoding.com/sketch -->
    <title>envelope (2)</title>
    <desc>Created with Sketch.</desc>
    <g id="Page-1" stroke="none" stroke-width="1" fill="none" fill-rule="evenodd">
        <g id="envelope-(2)" fill="#4E5FFB">
            <path d="M2.87940801,7.17396716 C3.25890397,7.43838305 4.40284505,8.22369881 6.31128989,9.52950917 C8.21979336,10.8353195 9.68183791,11.8407599 10.6974821,12.5458882 C10.8090676,12.6231808 11.0461353,12.7911981 11.4088025,13.0501717 C11.7715284,13.3093189 12.0729205,13.5187326 12.3127441,13.6784706 C12.5527436,13.8381507 12.8428774,14.0172842 13.1834387,14.2155816 C13.5238827,14.4137054 13.8448007,14.5627324 14.1461341,14.661389 C14.4475261,14.7608562 14.726519,14.8101266 14.9831713,14.8101266 L15,14.8101266 L15.0168873,14.8101266 C15.2735397,14.8101266 15.5526498,14.7607983 15.8540418,14.661389 C16.1552579,14.5627324 16.4764691,14.4135317 16.81662,14.2155816 C17.1569467,14.0170526 17.4470805,13.8380928 17.68708,13.6784706 C17.9270795,13.5187326 18.228237,13.3093189 18.5910802,13.0501717 C18.9536888,12.7909665 19.1910497,12.6231808 19.3026351,12.5458882 C20.3292444,11.8407599 22.9410937,10.0499459 27.1373621,7.17361978 C27.9520587,6.61184458 28.6327122,5.93398577 29.1794983,5.14050652 C29.7266949,4.34737466 30,3.51533597 30,2.64485363 C30,1.91743493 29.7347867,1.29475202 29.2045948,0.77686279 C28.6744614,0.258857768 28.0465809,0 27.3213637,0 L2.67846044,0 C1.81914133,0 1.15783795,0.286474667 0.694667589,0.859424001 C0.231555863,1.43248913 0,2.14879159 0,3.00827349 C0,3.70251717 0.307021144,4.45483161 0.92077025,5.26475362 C1.53446072,6.07473353 2.18755497,6.71119594 2.87940801,7.17396716 Z" id="Path"></path>
            <path d="M28.3256357,9.03206793 C24.6653128,11.4767185 21.8859443,13.3766155 19.9888786,14.7313538 C19.3527316,15.1937145 18.836672,15.5546463 18.4403481,15.8132813 C18.0440243,16.0720899 17.5169411,16.3363952 16.8583362,16.6060816 C16.199966,16.8761729 15.586394,17.0108135 15.0170925,17.0108135 L15.0000293,17.0108135 L14.9832007,17.0108135 C14.4140165,17.0108135 13.8000926,16.8761729 13.1417224,16.6060816 C12.4833521,16.3363952 11.9559171,16.0720899 11.5597105,15.8132813 C11.1636212,15.5546463 10.6473857,15.1937145 10.0112973,14.7313538 C8.50451599,13.6411522 5.73112834,11.7411395 1.69101709,9.03206793 C1.05469414,8.61385453 0.491080416,8.13448291 0,7.59493671 L0,20.7109722 C0,21.4382747 0.262163647,22.0602138 0.786784122,22.577831 C1.31128732,23.0956218 1.94198117,23.3544304 2.67863111,23.3544304 L27.3215448,23.3544304 C28.0580188,23.3544304 28.688654,23.0956218 29.2132159,22.577831 C29.7379536,22.0600402 30,21.4383326 30,20.7109722 L30,7.59493671 C29.5200019,8.1233159 28.9621345,8.60268751 28.3256357,9.03206793 Z" id="Path"></path>
        </g>
    </g>
</svg>