<?xml version="1.0" encoding="UTF-8"?>
<svg width="30px" height="30px" viewBox="0 0 30 30" version="1.1" xmlns="http://www.w3.org/2000/svg" xmlns:xlink="http://www.w3.org/1999/xlink">
    <!-- Generator: Sketch 52.4 (67378) - http://www.bohemiancoding.com/sketch -->
    <title>telephone</title>
    <desc>Created with Sketch.</desc>
    <g id="Page-1" stroke="none" stroke-width="1" fill="none" fill-rule="evenodd">
        <g id="telephone" fill="#4E5FFB">
            <path d="M22.7871518,19.8274428 C21.8079418,18.8607069 20.5854886,18.8607069 19.6125156,19.8274428 C18.8703119,20.5634096 18.1281081,21.2993763 17.3983784,22.047817 C17.1987942,22.2536383 17.030395,22.2972973 16.7871518,22.1600832 C16.3069023,21.8981289 15.7954678,21.6860707 15.3339293,21.3991684 C13.1821622,20.045738 11.3796674,18.3056133 9.78299376,16.3471933 C8.99089397,15.3742204 8.28611227,14.3326403 7.79338877,13.1600832 C7.69359667,12.9230769 7.71230769,12.7671518 7.90565489,12.5738046 C8.64785863,11.8565489 9.37135135,11.1205821 10.1010811,10.3846154 C11.1177131,9.36174636 11.1177131,8.16424116 10.0948441,7.13513514 C9.51480249,6.54885655 8.93476091,5.97505198 8.35471933,5.38877339 C7.75596674,4.79002079 7.16345114,4.18503119 6.55846154,3.59251559 C5.57925156,2.63825364 4.35679834,2.63825364 3.38382536,3.5987526 C2.63538462,4.33471933 1.9181289,5.08939709 1.15721414,5.81288981 C0.452432432,6.48024948 0.0969230769,7.2972973 0.0220790021,8.25155925 C-0.0964241164,9.8045738 0.284033264,11.2702703 0.8204158,12.6985447 C1.9181289,15.6548857 3.58964657,18.2806653 5.6166736,20.6881497 C8.35471933,23.9438669 11.6229106,26.5197505 15.4461954,28.3783784 C17.1676091,29.2141372 18.9513929,29.8565489 20.8911019,29.962578 C22.2258212,30.037422 23.3859044,29.7006237 24.3152183,28.6590437 C24.9513929,27.9480249 25.6686486,27.2993763 26.3422453,26.6195426 C27.3401663,25.6091476 27.3464033,24.3866944 26.3547193,23.3887734 C25.1696881,22.1975052 23.97842,21.012474 22.7871518,19.8274428 Z" id="Path"></path>
            <path d="M21.5958836,14.8565489 L23.8973389,14.4636175 C23.5355925,12.3492723 22.5376715,10.4345114 21.022079,8.91268191 C19.4191684,7.30977131 17.3921414,6.2993763 15.1592931,5.98752599 L14.8349688,8.3014553 C16.5626195,8.54469854 18.1343451,9.32432432 19.3755094,10.5654886 C20.5480665,11.7380457 21.3152183,13.2224532 21.5958836,14.8565489 Z" id="Path"></path>
            <path d="M25.1946362,4.85239085 C22.5376715,2.1954262 19.1759252,0.517671518 15.4649064,0 L15.1405821,2.31392931 C18.3464033,2.76299376 21.2528482,4.21621622 23.5480665,6.50519751 C25.7247817,8.68191268 27.1530561,11.4324324 27.6707277,14.4573805 L29.972183,14.0644491 C29.3671933,10.5592516 27.7143867,7.37837838 25.1946362,4.85239085 Z" id="Path"></path>
        </g>
    </g>
</svg>